<svg width="23" height="29" viewBox="0 0 23 29" fill="none" xmlns="http://www.w3.org/2000/svg">
    <path d="M19.579 20.6846C19.5191 20.6847 19.4597 20.673 19.4044 20.65C19.349 20.6271 19.2988 20.5934 19.2565 20.551L14.6133 15.9106C13.6869 16.7133 12.5493 17.2327 11.3359 17.407C10.1226 17.5813 8.88467 17.4032 7.76972 16.8938C6.65477 16.3844 5.70976 15.5653 5.04729 14.534C4.38482 13.5028 4.03281 12.3028 4.0332 11.0771C4.0335 9.81268 4.40872 8.57672 5.11142 7.5255C5.81412 6.47427 6.81275 5.65496 7.98107 5.17115C9.14938 4.68734 10.4349 4.56076 11.6752 4.80739C12.9154 5.05403 14.0547 5.66281 14.949 6.55679C16.0952 7.69827 16.7648 9.23252 16.8225 10.849C16.8801 12.4655 16.3214 14.0436 15.2595 15.2638L19.9002 19.9061C19.9637 19.9699 20.007 20.051 20.0245 20.1393C20.042 20.2276 20.033 20.3191 19.9987 20.4022C19.9644 20.4854 19.9062 20.5566 19.8315 20.6069C19.7568 20.6571 19.669 20.6841 19.579 20.6846ZM10.4275 5.59632C9.34337 5.59646 8.28367 5.91805 7.38238 6.52043C6.48109 7.1228 5.7787 7.9789 5.36404 8.98046C4.94937 9.98201 4.84106 11.084 5.05281 12.1471C5.26456 13.2102 5.78684 14.1867 6.55362 14.953C7.05934 15.4759 7.66411 15.8929 8.33268 16.1797C9.00124 16.4665 9.72022 16.6174 10.4477 16.6235C11.1752 16.6296 11.8966 16.4908 12.5699 16.2153C13.2431 15.9397 13.8548 15.5329 14.3693 15.0185C14.8837 14.5041 15.2905 13.8925 15.5661 13.2193C15.8417 12.5461 15.9805 11.8247 15.9744 11.0973C15.9683 10.3699 15.8174 9.65102 15.5306 8.98252C15.2437 8.31402 14.8267 7.7093 14.3037 7.20363C13.796 6.6927 13.192 6.28755 12.5266 6.01165C11.8613 5.73576 11.1478 5.59459 10.4275 5.59632Z" fill="#86888C"/>
</svg>
