<svg width="65" height="65" viewBox="0 0 65 65" fill="none" xmlns="http://www.w3.org/2000/svg">
    <circle cx="32.75" cy="32.5" r="32" fill="#F9F9F9"/>
    <path fill-rule="evenodd" clip-rule="evenodd" d="M27.741 21.7393C26.7236 20.9893 25.9802 20.7729 25.5228 20.8621C23.9662 21.1659 23.0395 21.7793 21.814 23.0048C20.1574 24.6614 19.2889 25.9606 19.6575 27.9354C20.0713 30.1519 22.0733 33.4679 27.4683 38.8629C32.8629 44.2576 36.1986 46.28 38.4267 46.7023C39.4731 46.9006 40.2819 46.7456 41.0063 46.3887C41.7713 46.012 42.4957 45.3842 43.3074 44.537C44.0257 43.7873 44.474 43.2518 44.7907 42.7172C45.0952 42.2033 45.3078 41.639 45.4699 40.809C45.5593 40.3515 45.3429 39.6081 44.5927 38.5905C43.8854 37.6311 42.8935 36.6853 41.9845 35.9188C41.3034 35.3446 40.2697 35.3236 39.4541 35.9342L37.1765 37.6391C35.2083 39.1125 32.4569 38.9021 30.7191 37.1643L29.167 35.6121C27.4291 33.8743 27.2187 31.1229 28.6921 29.1547L30.397 26.8773C31.0076 26.0616 30.9866 25.0278 30.4123 24.3468C29.6459 23.438 28.7002 22.4463 27.741 21.7393ZM29.2668 19.6694C30.4614 20.55 31.5573 21.7158 32.3781 22.6891C33.8108 24.3881 33.6991 26.7571 32.4555 28.4183L30.7506 30.6957C30.051 31.6303 30.1429 32.9516 30.9852 33.7939L32.5374 35.346C33.3797 36.1883 34.7009 36.2803 35.6355 35.5806L37.913 33.8757C39.5742 32.6321 41.9431 32.5204 43.6421 33.953C44.6156 34.7737 45.7817 35.8699 46.6625 37.0646C47.5003 38.2011 48.3019 39.7238 47.9936 41.3019C47.7876 42.3566 47.4871 43.2109 47.003 44.0279C46.5312 44.8242 45.9155 45.5319 45.1641 46.3161C44.2949 47.2232 43.3194 48.1159 42.1425 48.6955C40.9252 49.2951 39.5502 49.5324 37.9478 49.2287C34.8784 48.647 31.0566 46.0878 25.65 40.6812C20.2437 35.2749 17.7014 31.47 17.1297 28.4072C16.5129 25.1027 18.2178 22.9644 19.9957 21.1865C21.4533 19.729 22.8172 18.7702 25.0303 18.3383C26.6081 18.0304 28.1305 18.8318 29.2668 19.6694Z" fill="#E30613"/>
</svg>
