<svg width="65" height="64" viewBox="0 0 65 64" fill="none" xmlns="http://www.w3.org/2000/svg">
    <circle cx="32.25" cy="32" r="32" fill="#F9F9F9"/>
    <path d="M17 47L19.226 39.2704C17.4308 36.2593 16.8604 32.7456 17.6196 29.3741C18.3787 26.0026 20.4165 22.9995 23.3589 20.9157C26.3012 18.8319 29.9509 17.8073 33.6381 18.0299C37.3254 18.2525 40.8029 19.7074 43.4324 22.1276C46.062 24.5478 47.6673 27.7709 47.9538 31.2055C48.2402 34.6401 47.1886 38.0559 44.9919 40.826C42.7952 43.596 39.6007 45.5346 35.9947 46.286C32.3887 47.0373 28.6131 46.5511 25.3606 44.9164L17 47ZM25.7637 42.024L26.2807 42.3099C28.6366 43.6119 31.3882 44.1506 34.1068 43.8422C36.8253 43.5339 39.3581 42.3957 41.3105 40.6051C43.2628 38.8146 44.525 36.4721 44.9004 33.9429C45.2757 31.4137 44.7432 28.8397 43.3857 26.6221C42.0283 24.4045 39.9221 22.6679 37.3955 21.6828C34.8689 20.6978 32.0638 20.5196 29.4173 21.1761C26.7708 21.8327 24.4315 23.287 22.7641 25.3125C21.0966 27.338 20.1947 29.8209 20.1987 32.3742C20.1965 34.4913 20.8245 36.5675 22.0128 38.3716L22.3371 38.87L21.0926 43.1842L25.7637 42.024Z" fill="#E30613"/>
    <path fill-rule="evenodd" clip-rule="evenodd" d="M38.2278 34.6092C37.9218 34.3786 37.5635 34.2163 37.1803 34.1347C36.797 34.053 36.3989 34.0542 36.0162 34.138C35.4411 34.3612 35.0696 35.2043 34.698 35.6258C34.6197 35.7269 34.5046 35.7977 34.3743 35.8251C34.244 35.8525 34.1075 35.8345 33.9903 35.7746C31.8852 35.0042 30.1206 33.5915 28.9833 31.7659C28.8862 31.652 28.8403 31.5073 28.8552 31.3624C28.87 31.2175 28.9445 31.0836 29.0629 30.989C29.4773 30.6057 29.7815 30.1309 29.9475 29.6086C29.9844 29.0326 29.8431 28.4587 29.5406 27.9556C29.3067 27.2502 28.8616 26.6221 28.2578 26.1455C27.9464 26.0146 27.6012 25.9707 27.2637 26.0191C26.9262 26.0675 26.6109 26.2061 26.3559 26.4182C25.9131 26.7752 25.5616 27.2203 25.3274 27.721C25.0931 28.2216 24.9821 28.765 25.0024 29.3111C25.0037 29.6177 25.0453 29.9231 25.1262 30.2203C25.3316 30.9343 25.6475 31.6165 26.0639 32.2453C26.3644 32.7269 26.6921 33.1932 27.0459 33.6421C28.1955 35.1166 29.6406 36.3686 31.301 37.3285C32.1342 37.8162 33.0247 38.2128 33.9549 38.5104C34.9213 38.9197 35.9882 39.0768 37.0424 38.965C37.643 38.8801 38.2121 38.6585 38.6995 38.3198C39.187 37.9811 39.5779 37.5357 39.8378 37.0227C39.9905 36.7128 40.0369 36.3663 39.9705 36.0308C39.8113 35.3448 38.8293 34.9398 38.2278 34.6092Z" fill="#E30613"/>
</svg>
