<svg width="65" height="64" viewBox="0 0 65 64" fill="none" xmlns="http://www.w3.org/2000/svg">
    <circle cx="32.75" cy="32" r="32" fill="#F9F9F9"/>
    <path fill-rule="evenodd" clip-rule="evenodd" d="M26.2236 18.7144H39.7756C41.1925 18.7143 42.3353 18.7143 43.2602 18.7911C44.2127 18.8702 45.0487 19.0374 45.8201 19.4381C46.9943 20.048 47.9516 21.0054 48.5615 22.1795C48.9622 22.951 49.1294 23.7869 49.2085 24.7394C49.2853 25.6644 49.2853 26.8072 49.2853 28.2241V35.776C49.2853 37.1929 49.2853 38.3358 49.2085 39.2607C49.1294 40.2132 48.9622 41.0492 48.5615 41.8206C47.9516 42.9948 46.9943 43.9521 45.8201 44.562C45.0487 44.9627 44.2127 45.1299 43.2602 45.209C42.3353 45.2858 41.1924 45.2858 39.7755 45.2858H26.2236C24.8067 45.2858 23.6639 45.2858 22.7389 45.209C21.7865 45.1299 20.9505 44.9627 20.179 44.562C19.0049 43.9521 18.0476 42.9948 17.4376 41.8206C17.0369 41.0492 16.8698 40.2132 16.7907 39.2607C16.7138 38.3358 16.7139 37.193 16.7139 35.7761V28.2241C16.7139 26.8072 16.7138 25.6644 16.7907 24.7394C16.8698 23.7869 17.0369 22.951 17.4376 22.1795C18.0476 21.0054 19.0049 20.048 20.179 19.4381C20.9505 19.0374 21.7865 18.8702 22.7389 18.7911C23.6639 18.7143 24.8067 18.7143 26.2236 18.7144ZM21.3709 21.7167C23.1513 21.7622 24.8542 22.467 26.1471 23.6983L31.0311 28.3498C31.5536 28.8475 31.8906 29.167 32.1668 29.3903C32.4306 29.6036 32.5548 29.6575 32.6236 29.6786C32.8686 29.7535 33.1305 29.7535 33.3756 29.6786C33.4443 29.6575 33.5685 29.6036 33.8324 29.3903C34.1086 29.167 34.4455 28.8475 34.9681 28.3498L39.8521 23.6983C41.145 22.467 42.8479 21.7622 44.6283 21.7167C44.2859 21.5402 43.8331 21.419 43.0474 21.3538C42.2414 21.2868 41.2056 21.2858 39.7196 21.2858H26.2796C24.7936 21.2858 23.7577 21.2868 22.9517 21.3538C22.1661 21.419 21.7133 21.5402 21.3709 21.7167ZM46.5646 24.2842C46.543 24.2852 46.5214 24.2858 46.4996 24.2858H44.8121C43.6256 24.2858 42.4846 24.7422 41.6255 25.5604L36.706 30.2457C36.229 30.7 35.8163 31.0931 35.449 31.39C35.0602 31.7043 34.6401 31.9808 34.1276 32.1376C33.3924 32.3624 32.6068 32.3624 31.8715 32.1376C31.359 31.9808 30.939 31.7043 30.5502 31.39C30.1829 31.0931 29.7702 30.7 29.2931 30.2456L24.3737 25.5604C23.5145 24.7422 22.3735 24.2858 21.1871 24.2858H19.4996C19.4778 24.2858 19.4561 24.2852 19.4346 24.2842C19.4016 24.4768 19.3745 24.6969 19.3533 24.9522C19.2863 25.7582 19.2853 26.7941 19.2853 28.2801V35.7201C19.2853 37.2061 19.2863 38.2419 19.3533 39.0479C19.4189 39.8385 19.5413 40.292 19.7196 40.6353C20.0855 41.3397 20.6599 41.9141 21.3644 42.2801C21.7076 42.4584 22.1612 42.5807 22.9517 42.6464C23.7577 42.7133 24.7936 42.7144 26.2796 42.7144H39.7196C41.2056 42.7144 42.2414 42.7133 43.0474 42.6464C43.838 42.5807 44.2915 42.4584 44.6348 42.2801C45.3392 41.9141 45.9137 41.3397 46.2796 40.6353C46.4579 40.292 46.5802 39.8385 46.6459 39.0479C46.7128 38.2419 46.7139 37.2061 46.7139 35.7201V28.2801C46.7139 26.7941 46.7128 25.7582 46.6459 24.9522C46.6247 24.6969 46.5976 24.4768 46.5646 24.2842Z" fill="#E30613"/>
</svg>
