<svg width="65" height="65" viewBox="0 0 65 65" fill="none" xmlns="http://www.w3.org/2000/svg">
    <circle cx="32.25" cy="32.5" r="32" fill="#F9F9F9"/>
    <path d="M31.5512 48.4005H22.5512C20.5629 48.4005 18.9512 46.7887 18.9512 44.8005L18.9513 23.2006C18.9513 21.2123 20.5631 19.6006 22.5513 19.6006H38.7517C40.7399 19.6006 42.3517 21.2124 42.3517 23.2006V30.4006M25.2517 26.8006H36.0517M25.2517 32.2006H36.0517M36.0517 39.3315V43.7481C36.0517 45.9305 38.3788 47.9322 40.5613 47.9322C42.7437 47.9322 45.0517 45.9305 45.0517 43.7481V38.1693C45.0517 37.0139 44.3875 35.8413 42.91 35.8413C41.3293 35.8413 40.5613 37.0139 40.5613 38.1693V43.5156M25.2517 37.6006H30.6517" stroke="#E30613" stroke-width="2" stroke-linecap="round" stroke-linejoin="round"/>
</svg>