<svg width="82" height="80" viewBox="0 0 82 80" fill="none" xmlns="http://www.w3.org/2000/svg">
<path d="M25.2445 68.5648C24.1966 68.9141 23.6303 70.0467 23.9796 71.0946C24.3289 72.1425 25.4615 72.7088 26.5094 72.3595L25.2445 68.5648ZM46.6462 71.8467L46.4647 69.855L46.6462 71.8467ZM59.1077 69.0775L59.9849 70.8749L59.1077 69.0775ZM71.015 58.2456L69.4608 56.9869L69.4608 56.9869L71.015 58.2456ZM62.8711 51.468L64.2853 52.8822L64.2853 52.8822L62.8711 51.468ZM57.3871 56.9519L58.8014 58.3662L57.3871 56.9519ZM42.4923 57.3852C41.3878 57.3852 40.4923 58.2806 40.4923 59.3852C40.4923 60.4898 41.3878 61.3852 42.4923 61.3852V57.3852ZM69.7488 50.787L68.6394 52.4511V52.4511L69.7488 50.787ZM30.0917 48.9702L30.9861 50.759L30.0917 48.9702ZM44.9968 47.6067L45.5231 45.6772V45.6772L44.9968 47.6067ZM50.8175 49.1942L50.2913 51.1237L50.8175 49.1942ZM52.6618 56.1389L51.2475 54.7247L52.6618 56.1389ZM48.0012 57.971C47.2202 58.752 47.2202 60.0184 48.0012 60.7994C48.7823 61.5805 50.0486 61.5805 50.8296 60.7994L48.0012 57.971ZM26.5094 72.3595C27.1583 72.1432 28.2148 72.0679 29.7587 72.178C31.2617 72.2852 32.9966 72.5465 34.9128 72.8475C38.6276 73.431 43.0632 74.1814 46.8276 73.8385L46.4647 69.855C43.3061 70.1427 39.434 69.5086 35.5334 68.8959C33.6419 68.5988 31.7422 68.3093 30.0433 68.1881C28.3852 68.0699 26.6725 68.0888 25.2445 68.5648L26.5094 72.3595ZM46.8276 73.8385C49.4538 73.5993 51.5088 73.4979 53.4341 73.1495C55.4606 72.7827 57.3789 72.1466 59.9849 70.8749L58.2306 67.2801C55.8808 68.4268 54.3141 68.9252 52.7217 69.2134C51.028 69.5199 49.3302 69.594 46.4647 69.855L46.8276 73.8385ZM59.9849 70.8749C62.4146 69.6892 64.8164 67.7436 66.9396 65.7035C69.0821 63.6449 71.0377 61.3953 72.5692 59.5044L69.4608 56.9869C67.9918 58.8006 66.1507 60.9143 64.1682 62.8192C62.1664 64.7426 60.1148 66.3606 58.2306 67.2801L59.9849 70.8749ZM61.4569 50.0538L55.9729 55.5377L58.8014 58.3662L64.2853 52.8822L61.4569 50.0538ZM51.5127 57.3852H42.4923V61.3852H51.5127V57.3852ZM55.9729 55.5377C54.79 56.7207 53.1856 57.3852 51.5127 57.3852V61.3852C54.2465 61.3852 56.8683 60.2992 58.8014 58.3662L55.9729 55.5377ZM70.8582 49.1229C67.9031 47.1528 63.9682 47.5424 61.4568 50.0538L64.2853 52.8822C65.4484 51.7191 67.2708 51.5387 68.6394 52.4511L70.8582 49.1229ZM72.5692 59.5044C75.2789 56.1587 74.2859 51.408 70.8582 49.1229L68.6394 52.4511C70.2636 53.5338 70.5723 55.6144 69.4608 56.9869L72.5692 59.5044ZM10.6462 47.5391H21.7231V43.5391H10.6462V47.5391ZM22.4923 48.3083V73.2314H26.4923V48.3083H22.4923ZM21.7231 74.0006H10.6462V78.0006H21.7231V74.0006ZM9.87695 73.2314V48.3083H5.87695V73.2314H9.87695ZM10.6462 74.0006C10.2213 74.0006 9.87695 73.6562 9.87695 73.2314H5.87695C5.87695 75.8653 8.01222 78.0006 10.6462 78.0006V74.0006ZM22.4923 73.2314C22.4923 73.6562 22.1479 74.0006 21.7231 74.0006V78.0006C24.3571 78.0006 26.4923 75.8653 26.4923 73.2314H22.4923ZM21.7231 47.5391C22.1479 47.5391 22.4923 47.8835 22.4923 48.3083H26.4923C26.4923 45.6743 24.3571 43.5391 21.7231 43.5391V47.5391ZM10.6462 43.5391C8.01221 43.5391 5.87695 45.6743 5.87695 48.3083H9.87695C9.87695 47.8835 10.2213 47.5391 10.6462 47.5391V43.5391ZM26.7714 52.8664L30.9861 50.759L29.1972 47.1813L24.9825 49.2887L26.7714 52.8664ZM38.7607 48.9237H39.8964V44.9237H38.7607V48.9237ZM44.4706 49.5362L50.2913 51.1237L51.3437 47.2646L45.5231 45.6772L44.4706 49.5362ZM51.2475 54.7247L48.0012 57.971L50.8296 60.7994L54.076 57.5531L51.2475 54.7247ZM50.2913 51.1237C51.8868 51.5588 52.4169 53.5553 51.2475 54.7247L54.076 57.5531C57.4171 54.212 55.9023 48.5079 51.3437 47.2646L50.2913 51.1237ZM39.8964 48.9237C41.4416 48.9237 42.9799 49.1297 44.4706 49.5362L45.5231 45.6772C43.6893 45.1771 41.7971 44.9237 39.8964 44.9237V48.9237ZM30.9861 50.759C33.4 49.552 36.0619 48.9237 38.7607 48.9237V44.9237C35.4409 44.9237 32.1666 45.6966 29.1972 47.1813L30.9861 50.759Z" fill="white"/>
<path d="M61.8786 17.4352C62.9264 17.0859 63.4928 15.9533 63.1435 14.9054C62.7942 13.8575 61.6615 13.2912 60.6136 13.6405L61.8786 17.4352ZM40.4769 14.1532L40.6583 16.145L40.4769 14.1532ZM28.0153 16.9225L27.1382 15.1251L28.0153 16.9225ZM16.1081 27.7544L17.6623 29.0131L17.6623 29.0131L16.1081 27.7544ZM24.252 34.532L22.8378 33.1178L22.8378 33.1178L24.252 34.532ZM29.7359 29.048L28.3217 27.6338L29.7359 29.048ZM44.6307 28.6148C45.7353 28.6148 46.6307 27.7194 46.6307 26.6148C46.6307 25.5102 45.7353 24.6148 44.6307 24.6148L44.6307 28.6148ZM17.3742 35.213L18.4836 33.5489L18.4836 33.5489L17.3742 35.213ZM57.0314 37.0298L56.1369 35.241L57.0314 37.0298ZM42.1262 38.3933L41.6 40.3228L41.6 40.3228L42.1262 38.3933ZM36.3055 36.8058L36.8318 34.8763L36.3055 36.8058ZM34.4613 29.8611L35.8755 31.2753L34.4613 29.8611ZM39.1218 28.029C39.9029 27.2479 39.9029 25.9816 39.1218 25.2006C38.3408 24.4195 37.0745 24.4195 36.2934 25.2006L39.1218 28.029ZM60.6136 13.6405C59.9647 13.8568 58.9082 13.9321 57.3643 13.822C55.8613 13.7148 54.1265 13.4535 52.2103 13.1525C48.4955 12.569 44.0598 11.8186 40.2954 12.1615L40.6583 16.145C43.817 15.8572 47.689 16.4914 51.5896 17.1041C53.4811 17.4011 55.3809 17.6907 57.0798 17.8119C58.7378 17.9301 60.4505 17.9112 61.8786 17.4352L60.6136 13.6405ZM40.2954 12.1615C37.6692 12.4007 35.6142 12.5021 33.689 12.8505C31.6624 13.2173 29.7441 13.8534 27.1382 15.1251L28.8925 18.7199C31.2423 17.5732 32.8089 17.0748 34.4013 16.7866C36.095 16.4801 37.7929 16.406 40.6583 16.145L40.2954 12.1615ZM27.1382 15.1251C24.7085 16.3108 22.3067 18.2564 20.1835 20.2965C18.0409 22.3551 16.0853 24.6047 14.5539 26.4956L17.6623 29.0131C19.1313 27.1994 20.9723 25.0857 22.9548 23.1808C24.9567 21.2574 27.0083 19.6394 28.8925 18.7199L27.1382 15.1251ZM25.6662 35.9462L31.1501 30.4623L28.3217 27.6338L22.8378 33.1178L25.6662 35.9462ZM35.6103 28.6148L44.6307 28.6148L44.6307 24.6148L35.6103 24.6148L35.6103 28.6148ZM31.1501 30.4623C32.333 29.2793 33.9374 28.6148 35.6103 28.6148L35.6103 24.6148C32.8766 24.6148 30.2548 25.7008 28.3217 27.6338L31.1501 30.4623ZM16.2648 36.8771C19.2199 38.8472 23.1548 38.4576 25.6662 35.9462L22.8378 33.1178C21.6746 34.2809 19.8522 34.4613 18.4836 33.5489L16.2648 36.8771ZM14.5539 26.4956C11.8442 29.8413 12.8371 34.592 16.2648 36.8771L18.4836 33.5489C16.8595 32.4662 16.5507 30.3856 17.6623 29.0131L14.5539 26.4956ZM76.4769 38.4609L65.3999 38.4609L65.3999 42.4609L76.4769 42.4609L76.4769 38.4609ZM64.6307 37.6917L64.6307 12.7686L60.6307 12.7686L60.6307 37.6917L64.6307 37.6917ZM65.3999 11.9994L76.4769 11.9994L76.4769 7.9994L65.3999 7.9994L65.3999 11.9994ZM77.2461 12.7686L77.2461 37.6917L81.2461 37.6917L81.2461 12.7686L77.2461 12.7686ZM76.4769 11.9994C76.9017 11.9994 77.2461 12.3438 77.2461 12.7686L81.2461 12.7686C81.2461 10.1347 79.1108 7.9994 76.4769 7.9994L76.4769 11.9994ZM64.6307 12.7686C64.6307 12.3438 64.9751 11.9994 65.3999 11.9994L65.3999 7.9994C62.766 7.9994 60.6307 10.1347 60.6307 12.7686L64.6307 12.7686ZM65.3999 38.4609C64.9751 38.4609 64.6307 38.1165 64.6307 37.6917L60.6307 37.6917C60.6307 40.3257 62.766 42.4609 65.3999 42.4609L65.3999 38.4609ZM76.4769 42.4609C79.1108 42.4609 81.2461 40.3257 81.2461 37.6917L77.2461 37.6917C77.2461 38.1165 76.9017 38.4609 76.4769 38.4609L76.4769 42.4609ZM60.3517 33.1336L56.1369 35.241L57.9258 38.8187L62.1405 36.7113L60.3517 33.1336ZM48.3623 37.0763L47.2267 37.0763L47.2267 41.0763L48.3623 41.0763L48.3623 37.0763ZM42.6525 36.4638L36.8318 34.8763L35.7793 38.7353L41.6 40.3228L42.6525 36.4638ZM35.8755 31.2753L39.1218 28.029L36.2934 25.2006L33.0471 28.4469L35.8755 31.2753ZM36.8318 34.8763C35.2363 34.4412 34.7061 32.4447 35.8755 31.2753L33.0471 28.4469C29.706 31.788 31.2207 37.4921 35.7793 38.7353L36.8318 34.8763ZM47.2267 37.0763C45.6815 37.0763 44.1432 36.8703 42.6525 36.4638L41.6 40.3228C43.4337 40.8229 45.326 41.0763 47.2267 41.0763L47.2267 37.0763ZM56.1369 35.241C53.723 36.448 51.0612 37.0763 48.3623 37.0763L48.3623 41.0763C51.6822 41.0763 54.9564 40.3034 57.9258 38.8187L56.1369 35.241Z" fill="white"/>
</svg>
