<svg width="84" height="84" viewBox="0 0 84 84" fill="none" xmlns="http://www.w3.org/2000/svg">
<path d="M40 18C40 19.1046 40.8954 20 42 20C43.1046 20 44 19.1046 44 18H40ZM44 2C44 0.89543 43.1046 0 42 0C40.8954 0 40 0.89543 40 2H44ZM40 82C40 83.1046 40.8954 84 42 84C43.1046 84 44 83.1046 44 82H40ZM44 66C44 64.8954 43.1046 64 42 64C40.8954 64 40 64.8954 40 66H44ZM66 40C64.8954 40 64 40.8954 64 42C64 43.1046 64.8954 44 66 44V40ZM82 44C83.1046 44 84 43.1046 84 42C84 40.8954 83.1046 40 82 40V44ZM2 40C0.89543 40 0 40.8954 0 42C0 43.1046 0.89543 44 2 44V40ZM18 44C19.1046 44 20 43.1046 20 42C20 40.8954 19.1046 40 18 40V44ZM72 41.9998C72 58.5683 58.5685 71.9998 42 71.9998V75.9998C60.7777 75.9998 76 60.7774 76 41.9998H72ZM42 71.9998C25.4315 71.9998 12 58.5683 12 41.9998H8C8 60.7774 23.2223 75.9998 42 75.9998V71.9998ZM12 41.9998C12 25.4312 25.4315 11.9998 42 11.9998V7.99977C23.2223 7.99977 8 23.2221 8 41.9998H12ZM42 11.9998C58.5685 11.9998 72 25.4312 72 41.9998H76C76 23.2221 60.7777 7.99977 42 7.99977V11.9998ZM44 18V2H40V18H44ZM44 82V66H40V82H44ZM66 44H82V40H66V44ZM2 44H18V40H2V44ZM52 42C52 47.5229 47.5229 52 42 52V56C49.732 56 56 49.732 56 42H52ZM42 52C36.4772 52 32 47.5229 32 42H28C28 49.732 34.268 56 42 56V52ZM32 42C32 36.4772 36.4772 32 42 32V28C34.268 28 28 34.268 28 42H32ZM42 32C47.5229 32 52 36.4772 52 42H56C56 34.268 49.732 28 42 28V32Z" fill="white"/>
</svg>
