<svg width="30" height="30" viewBox="0 0 30 30" fill="none" xmlns="http://www.w3.org/2000/svg">
    <path fill-rule="evenodd" clip-rule="evenodd" d="M25.3858 4.55472C22.629 1.79791 18.9674 0.277197 15.0637 0.272949C7.01839 0.272949 0.472551 6.81879 0.468304 14.8641C0.468304 17.4383 1.13945 19.9487 2.41804 22.1618L0.349365 29.7229L8.08459 27.6924C10.217 28.8563 12.617 29.468 15.0595 29.468H15.0637C23.1048 29.468 29.6549 22.9222 29.6591 14.8726C29.6591 10.9731 28.1426 7.30729 25.3901 4.55047L25.3858 4.55472ZM15.0595 27.0085H15.0552C12.8803 27.0085 10.7437 26.4223 8.88317 25.3179L8.4414 25.0545L3.84954 26.2567L5.07291 21.7795L4.78406 21.3207C3.56919 19.388 2.92777 17.1579 2.92777 14.8641C2.92777 8.17808 8.37344 2.73667 15.0637 2.73667C18.3048 2.73667 21.3504 4.00251 23.64 6.29631C25.9295 8.59012 27.1911 11.6358 27.1911 14.8768C27.1911 21.5671 21.7455 27.0043 15.0637 27.0043L15.0595 27.0085ZM21.7157 17.9225C21.3504 17.7399 19.5579 16.8563 19.2223 16.7374C18.8867 16.6142 18.6446 16.5547 18.4025 16.92C18.1603 17.2853 17.4595 18.1052 17.2471 18.3515C17.0347 18.5937 16.8223 18.6234 16.457 18.4407C16.0917 18.2581 14.9193 17.8715 13.526 16.6312C12.4428 15.6627 11.7122 14.4691 11.4956 14.1037C11.2832 13.7384 11.4743 13.543 11.657 13.3604C11.8226 13.1947 12.0223 12.9356 12.2049 12.7232C12.3876 12.5108 12.4471 12.3579 12.5702 12.1158C12.6934 11.8737 12.6297 11.6613 12.5405 11.4786C12.4513 11.296 11.7207 9.49914 11.4149 8.77277C11.1175 8.06339 10.8159 8.15684 10.595 8.14835C10.3826 8.13985 10.1405 8.1356 9.89414 8.1356C9.64777 8.1356 9.25698 8.22481 8.9214 8.59012C8.58582 8.95543 7.64706 9.83897 7.64706 11.6315C7.64706 13.4241 8.95538 15.1614 9.13804 15.4036C9.32069 15.6457 11.7079 19.3285 15.3653 20.9087C16.2361 21.2825 16.9157 21.5076 17.4425 21.6776C18.3175 21.9537 19.1118 21.9154 19.7405 21.822C20.4414 21.7158 21.8984 20.9384 22.2 20.0889C22.5016 19.2393 22.5016 18.5087 22.4124 18.3558C22.3232 18.2029 22.0768 18.1137 21.7115 17.931L21.7157 17.9225Z" fill="white"/>
</svg>
