<svg width="16" height="12" viewBox="0 0 16 12" fill="none" xmlns="http://www.w3.org/2000/svg">
<path fill-rule="evenodd" clip-rule="evenodd" d="M13.3333 0H2.66666C1.56536 0 0.673323 0.898233 0.673323 2L0.666656 9.99944C0.666656 11.1015 1.56513 12 2.66666 12H13.3333C14.4348 12 15.3333 11.1015 15.3333 10V2C15.3333 0.898477 14.4348 0 13.3333 0ZM2.00666 2.00056C2.00666 1.63255 2.30381 1.33333 2.66666 1.33333H13.3333C13.6985 1.33333 14 1.63486 14 2V10C14 10.3651 13.6985 10.6667 13.3333 10.6667H2.66666C2.30151 10.6667 1.99999 10.3651 1.99999 10L2.00666 2.00056ZM3.65603 4.0001C3.34066 3.81008 3.23905 3.40039 3.42906 3.08502C3.61908 2.76965 4.02878 2.66803 4.34415 2.85805L7.98045 5.04902L11.7746 2.76296C12.0904 2.57264 12.5008 2.67442 12.6911 2.99029C12.881 3.30545 12.7802 3.71483 12.4656 3.90574L8.00663 6.61201L8.00246 6.61893L3.65603 4.0001Z" fill="#979797"/>
</svg>
