<svg width="207" height="41" viewBox="0 0 207 41" fill="none" xmlns="http://www.w3.org/2000/svg">
<g clip-path="url(#clip0_1223_1795)">
<path d="M32.3002 3.85273H27.8733V0.245605H40.5802V3.85273H36.1533V26.8892H32.3002V3.85273Z" fill="#424B5A"/>
<path d="M44.5153 0.245605H50.6638C55.1727 0.245605 57.3862 2.86897 57.3862 8.1157C57.3862 9.67333 57.1402 10.985 56.6483 12.1327C56.1564 13.1165 55.3366 14.0183 54.1069 14.7561L58.206 26.9712H54.1889L50.6638 15.5759H48.3683V26.9712H44.5153V0.245605ZM48.2863 12.1327H50.4178C51.0737 12.1327 51.6475 12.0508 52.0574 11.8868C52.4673 11.7228 52.7953 11.3949 52.9592 11.067C53.2052 10.7391 53.2871 10.2472 53.3691 9.75531C53.4511 9.26343 53.4511 8.68957 53.4511 7.95174C53.4511 7.21392 53.4511 6.72204 53.3691 6.14818C53.2871 5.57432 53.2052 5.2464 52.9592 4.91848C52.7133 4.59056 52.3854 4.26264 51.9755 4.09867C51.5656 3.93471 50.9917 3.85273 50.2539 3.85273H48.2863V12.1327Z" fill="#424B5A"/>
<path d="M66.6499 0.245605H62.7969V26.8892H66.6499V0.245605Z" fill="#424B5A"/>
<path d="M72.6344 0.245605H78.2091C79.4388 0.245605 80.5045 0.409566 81.3243 0.819467C82.2261 1.22937 82.8819 1.72125 83.4558 2.29511C84.0297 2.95095 84.3576 3.60679 84.6035 4.4266C84.8495 5.2464 84.9314 6.0662 84.9314 6.96798V7.95174C84.9314 8.68957 84.8495 9.26343 84.7675 9.75531C84.6855 10.2472 84.5215 10.6571 84.2756 11.067C84.0297 11.4769 83.7837 11.8048 83.4558 12.0508C83.1279 12.3787 82.718 12.6246 82.3081 12.8706C83.2099 13.2805 83.8657 13.9363 84.2756 14.7561C84.6855 15.5759 84.9314 16.7236 84.9314 18.1173V19.5929C84.9314 21.9704 84.3576 23.7739 83.2099 25.0036C82.0621 26.2333 80.2586 26.8892 77.7172 26.8892H72.4705V0.245605H72.6344ZM76.4055 11.149H78.1271C79.4388 11.149 80.2586 10.8211 80.6685 10.1652C81.0784 9.50937 81.3243 8.60759 81.3243 7.37788C81.3243 6.14818 81.0784 5.2464 80.5865 4.67254C80.0946 4.09867 79.1928 3.77075 77.9631 3.77075H76.4055V11.149ZM76.4055 23.1181H78.0451C78.7829 23.1181 79.4388 23.0361 79.8487 22.7902C80.2586 22.5442 80.5865 22.2163 80.8324 21.8884C81.0784 21.4785 81.1604 20.9866 81.2423 20.4947C81.3243 19.9209 81.3243 19.347 81.3243 18.6912C81.3243 18.0353 81.3243 17.4614 81.2423 16.9696C81.1604 16.4777 80.9964 16.0678 80.7505 15.7399C80.5045 15.4119 80.1766 15.166 79.7667 15.002C79.3568 14.8381 78.7829 14.7561 78.0451 14.7561H76.3235V23.1181H76.4055Z" fill="#424B5A"/>
<path d="M90.5881 6.55817C90.5881 5.49243 90.7521 4.50867 91.162 3.68886C91.5719 2.86906 92.0638 2.21322 92.6376 1.63936C93.2115 1.0655 93.9493 0.737578 94.6871 0.409657C95.425 0.163716 96.2448 -0.000244141 96.9826 -0.000244141C97.7204 -0.000244141 98.5402 0.163716 99.278 0.409657C100.016 0.655597 100.754 1.0655 101.328 1.63936C101.901 2.21322 102.393 2.86906 102.803 3.68886C103.213 4.50867 103.377 5.49243 103.377 6.55817V20.6588C103.377 21.7245 103.213 22.7083 102.803 23.5281C102.393 24.3479 101.901 25.0037 101.328 25.5776C100.754 26.1514 100.016 26.4794 99.278 26.8073C98.5402 27.0532 97.7204 27.2172 96.9826 27.2172C96.2448 27.2172 95.425 27.0532 94.6871 26.8073C93.9493 26.5613 93.2115 26.1514 92.6376 25.5776C92.0638 25.0037 91.5719 24.3479 91.162 23.5281C90.7521 22.7083 90.5881 21.7245 90.5881 20.6588V6.55817ZM94.4412 20.5768C94.4412 21.4786 94.6871 22.2164 95.179 22.6263C95.6709 23.0362 96.3268 23.2821 96.9826 23.2821C97.7204 23.2821 98.2943 23.0362 98.7862 22.6263C99.278 22.2164 99.524 21.4786 99.524 20.5768V6.55817C99.524 5.65639 99.278 4.91857 98.7862 4.50867C98.2943 4.09877 97.6384 3.85282 96.9826 3.85282C96.2448 3.85282 95.6709 4.09877 95.179 4.50867C94.6871 4.91857 94.4412 5.65639 94.4412 6.55817V20.5768Z" fill="#424B5A"/>
<path d="M109.034 0.245605H112.805V23.1181H120.429V26.8892H109.034V0.245605Z" fill="#424B5A"/>
<path d="M124.938 6.55817C124.938 5.49243 125.102 4.50867 125.512 3.68886C125.922 2.86906 126.414 2.21322 126.987 1.63936C127.561 1.0655 128.299 0.737578 129.037 0.409657C129.775 0.163716 130.595 -0.000244141 131.332 -0.000244141C132.07 -0.000244141 132.89 0.163716 133.628 0.409657C134.366 0.655597 135.103 1.0655 135.677 1.63936C136.251 2.21322 136.743 2.86906 137.153 3.68886C137.563 4.50867 137.727 5.49243 137.727 6.55817V20.6588C137.727 21.7245 137.563 22.7083 137.153 23.5281C136.743 24.3479 136.251 25.0037 135.677 25.5776C135.103 26.1514 134.366 26.4794 133.628 26.8073C132.89 27.0532 132.07 27.2172 131.332 27.2172C130.595 27.2172 129.775 27.0532 129.037 26.8073C128.299 26.5613 127.561 26.1514 126.987 25.5776C126.414 25.0037 125.922 24.3479 125.512 23.5281C125.102 22.7083 124.938 21.7245 124.938 20.6588V6.55817ZM128.709 20.5768C128.709 21.4786 128.955 22.2164 129.447 22.6263C129.939 23.0362 130.595 23.2821 131.25 23.2821C131.988 23.2821 132.562 23.0362 133.054 22.6263C133.546 22.2164 133.792 21.4786 133.792 20.5768V6.55817C133.792 5.65639 133.546 4.91857 133.054 4.50867C132.562 4.09877 131.906 3.85282 131.25 3.85282C130.513 3.85282 129.939 4.09877 129.447 4.50867C128.955 4.91857 128.709 5.57441 128.709 6.55817V20.5768Z" fill="#424B5A"/>
<path d="M143.137 6.55817C143.137 5.49243 143.301 4.50867 143.711 3.68886C144.121 2.86906 144.613 2.21322 145.187 1.63936C145.761 1.0655 146.499 0.737578 147.236 0.409657C147.974 0.163716 148.794 -0.000244141 149.532 -0.000244141C150.27 -0.000244141 151.09 0.163716 151.827 0.409657C152.565 0.655597 153.303 1.0655 153.877 1.63936C154.451 2.21322 154.943 2.86906 155.352 3.68886C155.762 4.50867 155.926 5.49243 155.926 6.55817V7.86986H152.073V6.55817C152.073 5.65639 151.827 4.91857 151.335 4.50867C150.844 4.09877 150.188 3.85282 149.532 3.85282C148.794 3.85282 148.22 4.09877 147.728 4.50867C147.236 4.91857 146.991 5.65639 146.991 6.55817V20.6588C146.991 21.5605 147.236 22.2984 147.728 22.7083C148.22 23.1182 148.876 23.3641 149.532 23.3641C150.27 23.3641 150.844 23.1182 151.335 22.7083C151.827 22.2984 152.073 21.5605 152.073 20.6588V15.576H149.04V12.2148H155.926V20.5768C155.926 21.6425 155.762 22.6263 155.352 23.4461C154.943 24.2659 154.451 24.9217 153.877 25.4956C153.303 26.0695 152.565 26.4794 151.827 26.7253C151.09 26.9712 150.27 27.1352 149.532 27.1352C148.794 27.1352 147.974 26.9712 147.236 26.7253C146.499 26.4794 145.761 26.0695 145.187 25.4956C144.613 24.9217 144.121 24.2659 143.711 23.4461C143.301 22.6263 143.137 21.6425 143.137 20.5768V6.55817Z" fill="#424B5A"/>
<path d="M165.108 15.6579L159.861 0.245605H163.878L166.994 10.8211H167.076L170.109 0.245605H174.208L168.961 15.6579V26.8892H165.108V15.6579Z" fill="#424B5A"/>
<path d="M178.307 0.245605H189.702V3.85273H182.16V11.6409H188.718V15.248H182.16V23.1181H189.702V26.8892H178.307V0.245605Z" fill="#424B5A"/>
<path d="M206.59 20.9047C206.59 21.7245 206.426 22.5443 206.098 23.2821C205.77 24.0199 205.36 24.6757 204.787 25.2496C204.213 25.8235 203.557 26.2334 202.819 26.5613C202.081 26.8892 201.261 27.0532 200.442 27.0532C199.704 27.0532 198.966 26.9712 198.228 26.7252C197.49 26.5613 196.834 26.1514 196.179 25.6595C195.605 25.1676 195.113 24.5118 194.703 23.692C194.293 22.8722 194.129 21.8884 194.129 20.6587V6.14822C194.129 5.24644 194.293 4.42664 194.539 3.68881C194.867 2.95099 195.277 2.29515 195.851 1.72129C196.425 1.14743 197.08 0.737527 197.818 0.409606C198.556 0.081685 199.458 -0.0822754 200.36 -0.0822754C201.261 -0.0822754 202.081 0.081685 202.819 0.409606C203.557 0.737527 204.213 1.14743 204.787 1.72129C205.36 2.29515 205.77 2.95099 206.098 3.77079C206.426 4.5906 206.59 5.4104 206.59 6.31218V7.78782H202.737V6.55812C202.737 5.8203 202.491 5.16446 202.081 4.5906C201.671 4.01673 201.097 3.77079 200.36 3.77079C199.376 3.77079 198.802 4.09871 198.474 4.67258C198.146 5.24644 197.982 5.98426 197.982 6.88604V20.4948C197.982 21.2326 198.146 21.8884 198.474 22.4623C198.802 22.9542 199.458 23.2821 200.278 23.2821C200.524 23.2821 200.77 23.2001 201.097 23.1181C201.343 23.0361 201.671 22.8722 201.917 22.7082C202.163 22.5443 202.327 22.2163 202.491 21.8884C202.655 21.5605 202.737 21.0686 202.737 20.5767V19.2651H206.59V20.9047Z" fill="#424B5A"/>
<path d="M33.2839 38.1205C33.12 38.6944 32.956 39.1043 32.5461 39.3502C32.2182 39.6782 31.7263 39.7601 31.2344 39.7601C30.8245 39.7601 30.4146 39.5962 30.0867 39.4322C29.7588 39.1863 29.5948 39.0223 29.4309 38.6944C29.3489 38.6124 29.3489 38.5304 29.3489 38.4485C29.3489 38.3665 29.2669 38.2845 29.2669 38.1205C29.2669 37.8746 29.1849 37.4647 29.1849 36.7269C29.1849 36.071 29.1849 35.5791 29.2669 35.3332C29.3489 35.0873 29.3489 34.9233 29.4309 34.7593C29.5948 34.5134 29.7588 34.2675 30.0867 34.0215C30.4146 33.7756 30.7426 33.6936 31.2344 33.6936C31.8083 33.6936 32.2182 33.8576 32.5461 34.1855C32.874 34.5134 33.12 34.9233 33.202 35.4152H32.3002C32.2182 35.1692 32.1362 35.0053 31.8903 34.8413C31.7263 34.6774 31.4804 34.5954 31.1525 34.5954C30.9885 34.5954 30.7426 34.6774 30.6606 34.7593C30.4966 34.8413 30.4146 34.9233 30.3327 35.0873C30.2507 35.2512 30.1687 35.4152 30.0867 35.5792C30.0047 35.8251 30.0047 36.153 30.0047 36.7269C30.0047 37.3007 30.0047 37.7106 30.0867 37.8746C30.0867 38.1205 30.1687 38.2845 30.3327 38.3665C30.4146 38.4485 30.5786 38.6124 30.6606 38.6944C30.8245 38.7764 30.9885 38.8584 31.1525 38.8584C31.6443 38.8584 31.9723 38.6124 32.2182 38.0386H33.2839V38.1205Z" fill="#424B5A"/>
<path d="M34.9235 33.8574H34.0217V39.76H34.9235V33.8574Z" fill="#424B5A"/>
<path d="M36.1533 33.8574H39.7605V34.6772H37.0551V36.3988H39.3505V37.2186H37.0551V38.9402H39.7605V39.76H36.1533V33.8574Z" fill="#424B5A"/>
<path d="M40.7441 33.8574H41.5639L44.1873 38.0384V33.8574H45.0071V39.76H44.1873L41.6459 35.579V39.76H40.7441V33.8574Z" fill="#424B5A"/>
<path d="M50.2538 38.1205C50.0898 38.6944 49.9259 39.1043 49.516 39.3502C49.1881 39.6782 48.6962 39.7601 48.2043 39.7601C47.7944 39.7601 47.3845 39.5962 47.0566 39.4322C46.7286 39.1863 46.5647 39.0223 46.4007 38.6944C46.3187 38.6124 46.3187 38.5304 46.3187 38.4485C46.3187 38.3665 46.2368 38.2845 46.2368 38.1205C46.2368 37.8746 46.1548 37.4647 46.1548 36.7269C46.1548 36.071 46.1548 35.5791 46.2368 35.3332C46.3187 35.0873 46.3187 34.9233 46.4007 34.7593C46.5647 34.5134 46.7286 34.2675 47.0566 34.0215C47.3845 33.7756 47.7124 33.6936 48.2043 33.6936C48.7782 33.6936 49.1881 33.8576 49.516 34.1855C49.8439 34.5134 50.0898 34.9233 50.1718 35.4152H49.27C49.1881 35.1692 49.1061 35.0053 48.8601 34.8413C48.6962 34.6774 48.4502 34.5954 48.1223 34.5954C47.9584 34.5954 47.7124 34.6774 47.6304 34.7593C47.4665 34.8413 47.3845 34.9233 47.3025 35.0873C47.2205 35.2512 47.1385 35.4152 47.0566 35.5792C46.9746 35.8251 46.9746 36.153 46.9746 36.7269C46.9746 37.3007 46.9746 37.7106 47.0566 37.8746C47.0566 38.1205 47.1385 38.2845 47.3025 38.3665C47.3845 38.4485 47.5484 38.6124 47.6304 38.6944C47.7944 38.7764 47.9584 38.8584 48.1223 38.8584C48.6142 38.8584 48.9421 38.6124 49.1881 38.0386H50.2538V38.1205Z" fill="#424B5A"/>
<path d="M51.8935 33.8574H50.9917V39.76H51.8935V33.8574Z" fill="#424B5A"/>
<path d="M56.0745 38.4483H53.943L53.5331 39.76H52.6313L54.6809 33.8574H55.4187L57.4682 39.76H56.5664L56.0745 38.4483ZM55.8286 37.6285L55.0088 35.0871L54.189 37.6285H55.8286Z" fill="#424B5A"/>
<path d="M58.1239 38.9404H58.9437V39.7602L58.1239 40.3341V38.9404Z" fill="#424B5A"/>
<path d="M63.1248 34.6772H61.5671V33.8574H65.5022V34.6772H63.9446V39.76H63.1248V34.6772Z" fill="#424B5A"/>
<path d="M66.24 33.8574H69.9291V34.6772H67.1418V36.3988H69.5192V37.2186H67.1418V38.9402H69.9291V39.76H66.24V33.8574Z" fill="#424B5A"/>
<path d="M74.684 38.1205C74.52 38.6944 74.356 39.1043 73.9461 39.3502C73.6182 39.6782 73.1263 39.7601 72.6345 39.7601C72.2246 39.7601 71.8147 39.5962 71.4867 39.4322C71.1588 39.1863 70.9949 39.0223 70.8309 38.6944C70.7489 38.6124 70.7489 38.5304 70.7489 38.4485C70.7489 38.3665 70.6669 38.2845 70.6669 38.1205C70.6669 37.8746 70.585 37.4647 70.585 36.7269C70.585 36.071 70.585 35.5791 70.6669 35.3332C70.7489 35.0873 70.7489 34.9233 70.8309 34.7593C70.9949 34.5134 71.1588 34.2675 71.4867 34.0215C71.8147 33.7756 72.1426 33.6936 72.6345 33.6936C73.2083 33.6936 73.6182 33.8576 73.9461 34.1855C74.2741 34.5134 74.52 34.9233 74.602 35.4152H73.7822C73.7002 35.1692 73.6182 35.0053 73.3723 34.8413C73.2083 34.6774 72.9624 34.5954 72.6345 34.5954C72.4705 34.5954 72.2246 34.6774 72.1426 34.7593C71.9786 34.8413 71.8966 34.9233 71.8147 35.0873C71.7327 35.2512 71.6507 35.4152 71.5687 35.5792C71.4867 35.8251 71.4867 36.153 71.4867 36.7269C71.4867 37.3007 71.4867 37.7106 71.5687 37.8746C71.5687 38.1205 71.6507 38.2845 71.8147 38.3665C71.8966 38.4485 72.0606 38.6124 72.1426 38.6944C72.3065 38.7764 72.4705 38.8584 72.6345 38.8584C73.1263 38.8584 73.4543 38.6124 73.7002 38.0386H74.684V38.1205Z" fill="#424B5A"/>
<path d="M75.5038 33.8574H76.2416L78.865 38.0384V33.8574H79.7668V39.76H78.947L76.3236 35.579V39.76H75.5038V33.8574Z" fill="#424B5A"/>
<path d="M80.9144 36.8091C80.9144 36.1533 80.9144 35.6614 80.9964 35.4155C81.0784 35.1695 81.0784 35.0056 81.1604 34.8416C81.3243 34.5957 81.4883 34.3497 81.8162 34.1038C82.1441 33.8579 82.4721 33.7759 82.9639 33.7759C83.4558 33.7759 83.7837 33.8579 84.1117 34.1038C84.4396 34.3497 84.6035 34.5957 84.7675 34.8416C84.8495 35.0056 84.9315 35.1695 84.9315 35.4155C84.9315 35.6614 85.0134 36.0713 85.0134 36.8091C85.0134 37.465 85.0134 37.9569 84.9315 38.2028C84.9315 38.4487 84.8495 38.6127 84.7675 38.7767C84.6035 39.0226 84.4396 39.2686 84.1117 39.5145C83.7837 39.7604 83.4558 39.8424 82.9639 39.8424C82.554 39.8424 82.1441 39.6785 81.8162 39.5145C81.4883 39.2686 81.3243 39.1046 81.1604 38.7767C81.0784 38.6947 81.0784 38.6127 81.0784 38.5307C81.0784 38.4487 80.9964 38.3668 80.9964 38.2028C80.9144 37.9569 80.9144 37.465 80.9144 36.8091ZM81.8162 36.8091C81.8162 37.383 81.8162 37.7929 81.8982 37.9569C81.8982 38.2028 81.9802 38.3668 82.1441 38.4488C82.2261 38.5307 82.3901 38.6947 82.4721 38.7767C82.636 38.8587 82.8 38.9406 82.9639 38.9406C83.2099 38.9406 83.3738 38.8587 83.5378 38.7767C83.7018 38.6947 83.7837 38.6127 83.8657 38.4488C83.9477 38.2848 84.0297 38.1208 84.1117 37.9569C84.1117 37.7929 84.1936 37.383 84.1936 36.8091C84.1936 36.2353 84.1936 35.8254 84.1117 35.6614C84.0297 35.4975 84.0297 35.3335 83.8657 35.1695C83.7837 35.0876 83.7018 34.9236 83.5378 34.8416C83.3738 34.7596 83.2099 34.7596 82.9639 34.6777C82.8 34.6777 82.554 34.7596 82.4721 34.8416C82.3081 34.9236 82.2261 35.0056 82.1441 35.1695C82.0622 35.3335 81.9802 35.4975 81.8982 35.6614C81.8162 35.8254 81.8162 36.2353 81.8162 36.8091Z" fill="#424B5A"/>
<path d="M86.1611 33.8574H87.0629V38.9402H89.7683V39.76H86.1611V33.8574Z" fill="#424B5A"/>
<path d="M90.5881 36.8091C90.5881 36.1533 90.5881 35.6614 90.6701 35.4155C90.7521 35.1695 90.7521 35.0056 90.8341 34.8416C90.998 34.5957 91.162 34.3497 91.4899 34.1038C91.8178 33.8579 92.1458 33.7759 92.6376 33.7759C93.1295 33.7759 93.4574 33.8579 93.7854 34.1038C94.1133 34.3497 94.2772 34.5957 94.4412 34.8416C94.5232 35.0056 94.6052 35.1695 94.6052 35.4155C94.6052 35.6614 94.6871 36.0713 94.6871 36.8091C94.6871 37.465 94.6871 37.9569 94.6052 38.2028C94.6052 38.4487 94.5232 38.6127 94.4412 38.7767C94.2772 39.0226 94.1133 39.2686 93.7854 39.5145C93.4574 39.7604 93.1295 39.8424 92.6376 39.8424C92.2277 39.8424 91.8178 39.6785 91.4899 39.5145C91.162 39.2686 90.998 39.1046 90.8341 38.7767C90.7521 38.6947 90.7521 38.6127 90.7521 38.5307C90.7521 38.4487 90.6701 38.3668 90.6701 38.2028C90.5881 37.9569 90.5881 37.465 90.5881 36.8091ZM91.4079 36.8091C91.4079 37.383 91.4079 37.7929 91.4899 37.9569C91.4899 38.2028 91.5719 38.3668 91.7359 38.4488C91.8178 38.5307 91.9818 38.6947 92.0638 38.7767C92.2277 38.8587 92.3917 38.9406 92.5557 38.9406C92.8016 38.9406 92.9656 38.8587 93.1295 38.7767C93.2935 38.6947 93.3755 38.6127 93.4574 38.4488C93.5394 38.2848 93.6214 38.1208 93.7034 37.9569C93.7034 37.7929 93.7854 37.383 93.7854 36.8091C93.7854 36.2353 93.7854 35.8254 93.7034 35.6614C93.6214 35.4975 93.6214 35.3335 93.4574 35.1695C93.3755 35.0876 93.2935 34.9236 93.1295 34.8416C92.9656 34.7596 92.8016 34.7596 92.5557 34.6777C92.3917 34.6777 92.1458 34.7596 92.0638 34.8416C91.8998 34.9236 91.8178 35.0056 91.7359 35.1695C91.6539 35.3335 91.5719 35.4975 91.4899 35.6614C91.4079 35.8254 91.4079 36.2353 91.4079 36.8091Z" fill="#424B5A"/>
<path d="M97.6384 36.4809H99.6879V37.7106C99.6879 38.2845 99.4419 38.7764 99.114 39.1863C98.7041 39.5962 98.2122 39.7601 97.6384 39.7601C97.2285 39.7601 96.8186 39.5962 96.4906 39.4322C96.1627 39.1863 95.9988 39.0223 95.8348 38.6944C95.7528 38.6124 95.7528 38.5304 95.7528 38.4485C95.7528 38.3665 95.6708 38.2845 95.6708 38.1205C95.6708 37.8746 95.5889 37.4647 95.5889 36.7269C95.5889 36.071 95.5889 35.5791 95.6708 35.3332C95.7528 35.0873 95.7528 34.9233 95.8348 34.7593C95.9988 34.5134 96.1627 34.2675 96.4906 34.0215C96.8186 33.7756 97.1465 33.6936 97.6384 33.6936C98.2122 33.6936 98.6221 33.8576 98.9501 34.1855C99.278 34.5134 99.5239 34.9233 99.6059 35.4152H98.7041C98.6221 35.1692 98.5402 35.0053 98.2942 34.8413C98.1303 34.6774 97.8843 34.5954 97.5564 34.5954C97.3924 34.5954 97.1465 34.6774 97.0645 34.7593C96.9006 34.8413 96.8186 34.9233 96.7366 35.0873C96.6546 35.2512 96.5726 35.4152 96.4906 35.5792C96.4087 35.8251 96.4087 36.153 96.4087 36.7269C96.4087 37.3007 96.4087 37.7106 96.4906 37.8746C96.4906 38.1205 96.5726 38.2845 96.7366 38.3665C96.8186 38.4485 96.9825 38.6124 97.0645 38.6944C97.2285 38.7764 97.3924 38.8584 97.5564 38.8584C97.8843 38.8584 98.2122 38.7764 98.3762 38.5304C98.6221 38.2845 98.7041 38.0386 98.7041 37.6287V37.3007H97.5564V36.4809H97.6384Z" fill="#424B5A"/>
<path d="M101.409 32.3818H102.475L101.327 33.6115H100.672L101.409 32.3818ZM100.836 33.8575H101.737V39.7601H100.836V33.8575Z" fill="#424B5A"/>
<path d="M105.918 38.4483H103.787L103.377 39.76H102.475L104.525 33.8574H105.263L107.312 39.76H106.41L105.918 38.4483ZM105.672 37.6285L104.853 35.0871L104.033 37.6285H105.672Z" fill="#424B5A"/>
<path d="M111.001 37.3006L109.28 33.8574H110.181L111.411 36.4808L112.641 33.8574H113.543L111.821 37.3006V39.76H111.001V37.3006Z" fill="#424B5A"/>
<path d="M116.084 33.8574H119.773V34.6772H116.986V36.3988H119.363V37.2186H116.986V38.9402H119.773V39.76H116.084V33.8574Z" fill="#424B5A"/>
<path d="M124.528 38.1205C124.364 38.6944 124.2 39.1043 123.79 39.3502C123.462 39.6782 122.97 39.7601 122.478 39.7601C122.069 39.7601 121.659 39.5962 121.331 39.4322C121.003 39.1863 120.839 39.0223 120.675 38.6944C120.593 38.6124 120.593 38.5304 120.593 38.4485C120.593 38.3665 120.511 38.2845 120.511 38.1205C120.511 37.8746 120.429 37.4647 120.429 36.7269C120.429 36.071 120.429 35.5791 120.511 35.3332C120.593 35.0873 120.593 34.9233 120.675 34.7593C120.839 34.5134 121.003 34.2675 121.331 34.0215C121.659 33.7756 121.987 33.6936 122.478 33.6936C123.052 33.6936 123.462 33.8576 123.79 34.1855C124.118 34.5134 124.364 34.9233 124.446 35.4152H123.544C123.462 35.1692 123.38 35.0053 123.134 34.8413C122.97 34.6774 122.724 34.5954 122.396 34.5954C122.233 34.5954 121.987 34.6774 121.905 34.7593C121.741 34.8413 121.659 34.9233 121.577 35.0873C121.495 35.2512 121.413 35.4152 121.331 35.5792C121.249 35.8251 121.249 36.153 121.249 36.7269C121.249 37.3007 121.249 37.7106 121.331 37.8746C121.331 38.1205 121.413 38.2845 121.577 38.3665C121.659 38.4485 121.823 38.6124 121.905 38.6944C122.069 38.7764 122.233 38.8584 122.396 38.8584C122.888 38.8584 123.216 38.6124 123.462 38.0386H124.528V38.1205Z" fill="#424B5A"/>
<path d="M125.102 36.8091C125.102 36.1533 125.102 35.6614 125.184 35.4155C125.184 35.1695 125.266 35.0056 125.348 34.8416C125.512 34.5957 125.676 34.3497 126.004 34.1038C126.332 33.8579 126.659 33.7759 127.151 33.7759C127.643 33.7759 127.971 33.8579 128.299 34.1038C128.627 34.3497 128.791 34.5957 128.955 34.8416C129.037 35.0056 129.119 35.1695 129.119 35.4155C129.119 35.6614 129.201 36.0713 129.201 36.8091C129.201 37.465 129.201 37.9569 129.119 38.2028C129.119 38.4487 129.037 38.6127 128.955 38.7767C128.791 39.0226 128.627 39.2686 128.299 39.5145C127.971 39.7604 127.643 39.8424 127.151 39.8424C126.741 39.8424 126.332 39.6785 126.004 39.5145C125.676 39.2686 125.512 39.1046 125.348 38.7767C125.266 38.6947 125.266 38.6127 125.266 38.5307C125.266 38.4487 125.184 38.3668 125.184 38.2028C125.102 37.9569 125.102 37.465 125.102 36.8091ZM126.004 36.8091C126.004 37.383 126.004 37.7929 126.086 37.9569C126.086 38.2028 126.168 38.3668 126.332 38.4488C126.413 38.5307 126.577 38.6947 126.659 38.7767C126.823 38.8587 126.987 38.9406 127.151 38.9406C127.397 38.9406 127.561 38.8587 127.725 38.7767C127.889 38.6947 127.971 38.6127 128.053 38.4488C128.135 38.2848 128.217 38.1208 128.299 37.9569C128.299 37.7929 128.381 37.383 128.381 36.8091C128.381 36.2353 128.381 35.8254 128.299 35.6614C128.217 35.4975 128.217 35.3335 128.053 35.1695C127.971 35.0876 127.889 34.9236 127.725 34.8416C127.561 34.7596 127.397 34.7596 127.151 34.6777C126.987 34.6777 126.741 34.7596 126.659 34.8416C126.495 34.9236 126.413 35.0056 126.332 35.1695C126.25 35.3335 126.168 35.4975 126.086 35.6614C126.004 35.8254 126.004 36.2353 126.004 36.8091Z" fill="#424B5A"/>
<path d="M130.349 33.8574H131.168L133.71 38.0384V33.8574H134.611V39.76H133.792L131.25 35.579H131.168V39.76H130.349V33.8574Z" fill="#424B5A"/>
<path d="M135.759 36.8091C135.759 36.1533 135.759 35.6614 135.841 35.4155C135.841 35.1695 135.923 35.0056 136.005 34.8416C136.169 34.5957 136.333 34.3497 136.661 34.1038C136.989 33.8579 137.317 33.7759 137.809 33.7759C138.301 33.7759 138.628 33.8579 138.956 34.1038C139.284 34.3497 139.448 34.5957 139.612 34.8416C139.694 35.0056 139.776 35.1695 139.776 35.4155C139.776 35.6614 139.858 36.0713 139.858 36.8091C139.858 37.465 139.858 37.9569 139.776 38.2028C139.776 38.4487 139.694 38.6127 139.612 38.7767C139.448 39.0226 139.284 39.2686 138.956 39.5145C138.628 39.7604 138.301 39.8424 137.809 39.8424C137.399 39.8424 136.989 39.6785 136.661 39.5145C136.333 39.2686 136.169 39.1046 136.005 38.7767C135.923 38.6947 135.923 38.6127 135.923 38.5307C135.923 38.4487 135.841 38.3668 135.841 38.2028C135.841 37.9569 135.759 37.465 135.759 36.8091ZM136.661 36.8091C136.661 37.383 136.661 37.7929 136.743 37.9569C136.743 38.2028 136.825 38.3668 136.989 38.4488C137.071 38.5307 137.235 38.6947 137.317 38.7767C137.481 38.8587 137.645 38.9406 137.809 38.9406C138.055 38.9406 138.219 38.8587 138.383 38.7767C138.546 38.6947 138.628 38.6127 138.71 38.4488C138.792 38.2848 138.874 38.1208 138.956 37.9569C138.956 37.7929 139.038 37.383 139.038 36.8091C139.038 36.2353 139.038 35.8254 138.956 35.6614C138.874 35.4975 138.874 35.3335 138.71 35.1695C138.628 35.0876 138.546 34.9236 138.383 34.8416C138.219 34.7596 138.055 34.7596 137.809 34.6777C137.645 34.6777 137.399 34.7596 137.317 34.8416C137.153 34.9236 137.071 35.0056 136.989 35.1695C136.907 35.3335 136.825 35.4975 136.743 35.6614C136.661 35.8254 136.661 36.2353 136.661 36.8091Z" fill="#424B5A"/>
<path d="M141.006 33.8574H141.826L143.465 37.7105L145.105 33.8574H145.925V39.76H145.023V36.0709L143.793 38.9402H143.137L141.908 36.0709V39.76H141.006V33.8574Z" fill="#424B5A"/>
<path d="M147.81 32.3818H148.876L147.728 33.6115H147.073L147.81 32.3818ZM147.318 33.8575H148.22V39.7601H147.318V33.8575Z" fill="#424B5A"/>
<path d="M152.319 38.4483H150.188L149.778 39.76H148.876L150.925 33.8574H151.663L153.713 39.76H152.811L152.319 38.4483ZM152.073 37.6285L151.253 35.0871L150.434 37.6285H152.073Z" fill="#424B5A"/>
<path d="M159.37 38.4483H157.238L156.828 39.76H155.926L157.976 33.8574H158.714L160.763 39.76H159.861L159.37 38.4483ZM159.124 37.6285L158.304 35.0871L157.484 37.6285H159.124Z" fill="#424B5A"/>
<path d="M163.55 38.3663C164.042 38.7762 164.534 38.9402 165.19 38.9402C165.928 38.9402 166.338 38.6943 166.338 38.1204C166.338 37.7105 166.092 37.3826 165.6 37.3006C165.354 37.3006 165.108 37.2186 164.862 37.2186C164.37 37.1366 163.96 36.9727 163.714 36.6447C163.468 36.3168 163.305 35.9889 163.305 35.579C163.305 35.0871 163.469 34.6772 163.796 34.3493C164.124 34.0214 164.534 33.8574 165.19 33.8574C165.928 33.8574 166.502 34.1034 167.076 34.4313L166.584 35.1691C166.174 34.8412 165.682 34.7592 165.19 34.6772C164.944 34.6772 164.698 34.7592 164.534 34.9232C164.37 35.0871 164.288 35.2511 164.288 35.579C164.288 35.743 164.37 35.9069 164.452 36.0709C164.616 36.2348 164.78 36.3168 165.026 36.3988C165.19 36.3988 165.436 36.4808 165.682 36.4808C166.256 36.5628 166.584 36.7267 166.83 37.0547C167.076 37.3826 167.24 37.7105 167.24 38.1204C167.24 39.2681 166.584 39.842 165.272 39.842C164.452 39.842 163.714 39.596 163.059 39.0222L163.55 38.3663Z" fill="#424B5A"/>
<path d="M168.141 33.8574H169.043V37.6285C169.043 38.0384 169.125 38.3663 169.371 38.5303C169.617 38.7762 169.863 38.8582 170.191 38.8582C170.519 38.8582 170.847 38.7762 171.011 38.5303C171.257 38.2844 171.339 38.0384 171.339 37.6285V33.8574H172.24V37.7105C172.24 38.3663 172.076 38.8582 171.666 39.1861C171.257 39.596 170.847 39.76 170.191 39.76C169.617 39.76 169.125 39.596 168.797 39.1861C168.387 38.8582 168.223 38.3663 168.223 37.7105V33.8574H168.141Z" fill="#424B5A"/>
<path d="M175.438 38.3663C175.93 38.7762 176.421 38.9402 177.077 38.9402C177.815 38.9402 178.225 38.6943 178.225 38.1204C178.225 37.7105 177.979 37.3826 177.487 37.3006C177.241 37.3006 176.995 37.2186 176.749 37.2186C176.257 37.1366 175.848 36.9727 175.602 36.6447C175.356 36.3168 175.192 35.9889 175.192 35.579C175.192 35.0871 175.356 34.6772 175.684 34.3493C176.012 34.0214 176.421 33.8574 177.077 33.8574C177.815 33.8574 178.389 34.1034 178.963 34.4313L178.471 35.1691C178.061 34.8412 177.569 34.7592 177.077 34.6772C176.831 34.6772 176.585 34.7592 176.421 34.9232C176.257 35.0871 176.176 35.2511 176.176 35.579C176.176 35.743 176.257 35.9069 176.339 36.0709C176.503 36.2348 176.667 36.3168 176.913 36.3988C177.077 36.3988 177.323 36.4808 177.569 36.4808C178.143 36.5628 178.471 36.7267 178.717 37.0547C178.963 37.3826 179.127 37.7105 179.127 38.1204C179.127 39.2681 178.471 39.842 177.159 39.842C176.339 39.842 175.602 39.596 174.946 39.0222L175.438 38.3663Z" fill="#424B5A"/>
<path d="M180.11 33.8574H183.8V34.6772H181.012V36.3988H183.39V37.2186H181.012V38.9402H183.8V39.76H180.11V33.8574Z" fill="#424B5A"/>
<path d="M184.783 33.8574H186.997C187.489 33.8574 187.899 34.0214 188.145 34.2673C188.473 34.5952 188.718 35.0051 188.718 35.497C188.718 36.3168 188.309 36.8087 187.653 37.1366L188.964 39.76H187.981L186.833 37.2186H185.767V39.76H184.865V33.8574H184.783ZM185.603 36.4808H186.915C187.243 36.4808 187.489 36.3988 187.653 36.1529C187.817 35.9889 187.899 35.743 187.899 35.497C187.899 35.1691 187.817 35.0051 187.653 34.8412C187.489 34.7592 187.325 34.6772 186.997 34.6772H185.603V36.4808Z" fill="#424B5A"/>
<path d="M189.046 33.8574H189.948L191.26 38.3663L192.571 33.8574H193.473L191.588 39.76H190.932L189.046 33.8574Z" fill="#424B5A"/>
<path d="M195.113 33.8574H194.211V39.76H195.113V33.8574Z" fill="#424B5A"/>
<path d="M200.196 38.1205C200.032 38.6944 199.868 39.1043 199.458 39.3502C199.13 39.6782 198.638 39.7601 198.146 39.7601C197.736 39.7601 197.326 39.5962 196.998 39.4322C196.671 39.1863 196.507 39.0223 196.343 38.6944C196.261 38.6124 196.261 38.5304 196.261 38.4485C196.261 38.3665 196.179 38.2845 196.179 38.1205C196.179 37.8746 196.097 37.4647 196.097 36.7269C196.097 36.071 196.097 35.5791 196.179 35.3332C196.261 35.0873 196.261 34.9233 196.343 34.7593C196.507 34.5134 196.671 34.2675 196.998 34.0215C197.326 33.7756 197.654 33.6936 198.146 33.6936C198.72 33.6936 199.13 33.8576 199.458 34.1855C199.786 34.5134 200.032 34.9233 200.114 35.4152H199.212C199.13 35.1692 199.048 35.0053 198.802 34.8413C198.638 34.6774 198.392 34.5954 198.064 34.5954C197.9 34.5954 197.654 34.6774 197.572 34.7593C197.408 34.8413 197.326 34.9233 197.244 35.0873C197.162 35.2512 197.08 35.4152 196.998 35.5792C196.916 35.8251 196.916 36.153 196.916 36.7269C196.916 37.3007 196.916 37.7106 196.998 37.8746C196.998 38.1205 197.08 38.2845 197.244 38.3665C197.326 38.4485 197.49 38.6124 197.572 38.6944C197.736 38.7764 197.9 38.8584 198.064 38.8584C198.556 38.8584 198.884 38.6124 199.13 38.0386H200.196V38.1205Z" fill="#424B5A"/>
<path d="M201.835 33.8574H200.933V39.76H201.835V33.8574Z" fill="#424B5A"/>
<path d="M202.901 36.8091C202.901 36.1533 202.901 35.6614 202.983 35.4155C203.065 35.1695 203.065 35.0056 203.147 34.8416C203.311 34.5957 203.475 34.3497 203.803 34.1038C204.131 33.8579 204.459 33.7759 204.951 33.7759C205.442 33.7759 205.77 33.8579 206.098 34.1038C206.426 34.3497 206.59 34.5957 206.754 34.8416C206.836 35.0056 206.918 35.1695 206.918 35.4155C206.918 35.6614 207 36.0713 207 36.8091C207 37.465 207 37.9569 206.918 38.2028C206.918 38.4487 206.836 38.6127 206.754 38.7767C206.59 39.0226 206.426 39.2686 206.098 39.5145C205.77 39.7604 205.442 39.8424 204.951 39.8424C204.541 39.8424 204.131 39.6785 203.803 39.5145C203.475 39.2686 203.311 39.1046 203.147 38.7767C203.065 38.6947 203.065 38.6127 203.065 38.5307C203.065 38.4487 202.983 38.3668 202.983 38.2028C202.901 37.9569 202.901 37.465 202.901 36.8091ZM203.721 36.8091C203.721 37.383 203.721 37.7929 203.803 37.9569C203.803 38.2028 203.885 38.3668 204.049 38.4488C204.131 38.5307 204.295 38.6947 204.377 38.7767C204.541 38.8587 204.705 38.9406 204.869 38.9406C205.114 38.9406 205.278 38.8587 205.442 38.7767C205.606 38.6947 205.688 38.6127 205.77 38.4488C205.852 38.2848 205.934 38.1208 206.016 37.9569C206.016 37.7929 206.098 37.383 206.098 36.8091C206.098 36.2353 206.098 35.8254 206.016 35.6614C205.934 35.4975 205.934 35.3335 205.77 35.1695C205.688 35.0876 205.606 34.9236 205.442 34.8416C205.278 34.7596 205.114 34.7596 204.869 34.6777C204.705 34.6777 204.459 34.7596 204.377 34.8416C204.213 34.9236 204.131 35.0056 204.049 35.1695C203.967 35.3335 203.885 35.4975 203.803 35.6614C203.803 35.8254 203.721 36.2353 203.721 36.8091Z" fill="#424B5A"/>
<path d="M26.6436 26.8892H28.4471L14.8384 13.2805V0.245605H13.5267V11.9688L9.67366 8.1157H11.4772V8.77155L12.461 7.78778L11.4772 6.72204V7.37788H8.93584L6.06653 4.50858H11.4772V5.16442L12.461 4.18065L11.4772 3.11491V3.77075H5.32871L2.54139 0.983427H11.3133V1.39333L12.461 0.245605H11.3133H1.80356H0L13.5267 13.7723V26.8892H13.6087H14.8384H23.0364H24.5121L23.0364 25.4135V26.1513H14.8384V23.364H19.4293V24.1018L20.577 22.9541L19.4293 21.8064V22.6262H14.8384V19.7569H15.9042V20.5767L17.0519 19.347L15.9042 18.1993V19.0191H14.8384V15.002L26.6436 26.8892Z" fill="#424B5A"/>
</g>
<defs>
<clipPath id="clip0_1223_1795">
<rect width="207" height="40.3343" fill="white"/>
</clipPath>
</defs>
</svg>
