<svg width="119" height="23" viewBox="0 0 119 23" fill="none" xmlns="http://www.w3.org/2000/svg">
<g clip-path="url(#clip0_1223_1399)">
<path d="M18.4187 2.1968H15.8943V0.139893H23.1403V2.1968H20.6159V15.333H18.4187V2.1968Z" fill="#E30613"/>
<path d="M25.3842 0.139893H28.8903C31.4614 0.139893 32.7236 1.63583 32.7236 4.6277C32.7236 5.51591 32.5833 6.26388 32.3029 6.91835C32.0224 7.47932 31.5549 7.99355 30.8537 8.41428L33.1911 15.3797H30.9004L28.8903 8.88176H27.5813V15.3797H25.3842V0.139893ZM27.5346 6.91835H28.75C29.124 6.91835 29.4512 6.8716 29.685 6.7781C29.9187 6.68461 30.1057 6.49762 30.1992 6.31062C30.3394 6.12363 30.3862 5.84314 30.4329 5.56266C30.4797 5.28217 30.4797 4.95493 30.4797 4.5342C30.4797 4.11347 30.4797 3.83298 30.4329 3.50575C30.3862 3.17851 30.3394 2.99152 30.1992 2.80453C30.059 2.61753 29.872 2.43054 29.6382 2.33705C29.4045 2.24355 29.0772 2.1968 28.6565 2.1968H27.5346V6.91835Z" fill="#E30613"/>
<path d="M38.0061 0.139893H35.809V15.333H38.0061V0.139893Z" fill="#E30613"/>
<path d="M41.4187 0.139893H44.5976C45.2988 0.139893 45.9065 0.233388 46.374 0.467128C46.8882 0.700868 47.2622 0.981356 47.5894 1.30859C47.9167 1.68258 48.1036 2.05656 48.2439 2.52404C48.3841 2.99152 48.4309 3.459 48.4309 3.97323V4.5342C48.4309 4.95493 48.3841 5.28217 48.3374 5.56266C48.2906 5.84314 48.1971 6.07688 48.0569 6.31062C47.9167 6.54436 47.7764 6.73136 47.5894 6.8716C47.4024 7.05859 47.1687 7.19883 46.935 7.33908C47.4492 7.57282 47.8232 7.9468 48.0569 8.41428C48.2906 8.88176 48.4309 9.53623 48.4309 10.3309V11.1724C48.4309 12.5281 48.1037 13.5566 47.4492 14.2578C46.7947 14.959 45.7663 15.333 44.3171 15.333H41.3252V0.139893H41.4187ZM43.5691 6.35737H44.5508C45.2988 6.35737 45.7663 6.17038 46 5.7964C46.2337 5.42241 46.374 4.90819 46.374 4.20697C46.374 3.50575 46.2337 2.99152 45.9532 2.66428C45.6728 2.33705 45.1585 2.15005 44.4573 2.15005H43.5691V6.35737ZM43.5691 13.1826H44.5041C44.9248 13.1826 45.2988 13.1358 45.5325 12.9956C45.7663 12.8553 45.9532 12.6683 46.0935 12.4814C46.2337 12.2476 46.2805 11.9671 46.3272 11.6866C46.374 11.3594 46.374 11.0322 46.374 10.6582C46.374 10.2842 46.374 9.95697 46.3272 9.67648C46.2805 9.39599 46.187 9.16225 46.0467 8.97526C45.9065 8.78827 45.7195 8.64802 45.4858 8.55453C45.252 8.46103 44.9248 8.41428 44.5041 8.41428H43.5223V13.1826H43.5691Z" fill="#E30613"/>
<path d="M51.6565 3.73984C51.6565 3.13211 51.75 2.57114 51.9837 2.10366C52.2175 1.63618 52.498 1.26219 52.8252 0.934959C53.1524 0.607724 53.5732 0.420732 53.9939 0.23374C54.4146 0.0934959 54.8821 0 55.3028 0C55.7236 0 56.191 0.0934959 56.6118 0.23374C57.0325 0.373984 57.4532 0.607724 57.7805 0.934959C58.1077 1.26219 58.3882 1.63618 58.6219 2.10366C58.8557 2.57114 58.9492 3.13211 58.9492 3.73984V11.7805C58.9492 12.3882 58.8557 12.9492 58.6219 13.4167C58.3882 13.8841 58.1077 14.2581 57.7805 14.5854C57.4532 14.9126 57.0325 15.0996 56.6118 15.2866C56.191 15.4268 55.7236 15.5203 55.3028 15.5203C54.8821 15.5203 54.4146 15.4268 53.9939 15.2866C53.5732 15.1463 53.1524 14.9126 52.8252 14.5854C52.498 14.2581 52.2175 13.8841 51.9837 13.4167C51.75 12.9492 51.6565 12.3882 51.6565 11.7805V3.73984ZM53.8536 11.7337C53.8536 12.248 53.9939 12.6687 54.2744 12.9024C54.5549 13.1362 54.9289 13.2764 55.3028 13.2764C55.7236 13.2764 56.0508 13.1362 56.3313 12.9024C56.6118 12.6687 56.752 12.248 56.752 11.7337V3.73984C56.752 3.22561 56.6118 2.80488 56.3313 2.57114C56.0508 2.3374 55.6768 2.19715 55.3028 2.19715C54.8821 2.19715 54.5549 2.3374 54.2744 2.57114C53.9939 2.80488 53.8536 3.22561 53.8536 3.73984V11.7337Z" fill="#E30613"/>
<path d="M62.1748 0.139893H64.3252V13.1826H68.6728V15.333H62.1748V0.139893Z" fill="#E30613"/>
<path d="M71.2439 3.73984C71.2439 3.13211 71.3374 2.57114 71.5711 2.10366C71.8049 1.63618 72.0854 1.26219 72.4126 0.934959C72.7398 0.607724 73.1606 0.420732 73.5813 0.23374C74.002 0.0934959 74.4695 0 74.8902 0C75.311 0 75.7785 0.0934959 76.1992 0.23374C76.6199 0.373984 77.0406 0.607724 77.3679 0.934959C77.6951 1.26219 77.9756 1.63618 78.2093 2.10366C78.4431 2.57114 78.5366 3.13211 78.5366 3.73984V11.7805C78.5366 12.3882 78.4431 12.9492 78.2093 13.4167C77.9756 13.8841 77.6951 14.2581 77.3679 14.5854C77.0406 14.9126 76.6199 15.0996 76.1992 15.2866C75.7785 15.4268 75.311 15.5203 74.8902 15.5203C74.4695 15.5203 74.002 15.4268 73.5813 15.2866C73.1606 15.1463 72.7398 14.9126 72.4126 14.5854C72.0854 14.2581 71.8049 13.8841 71.5711 13.4167C71.3374 12.9492 71.2439 12.3882 71.2439 11.7805V3.73984ZM73.3943 11.7337C73.3943 12.248 73.5345 12.6687 73.815 12.9024C74.0955 13.1362 74.4695 13.2764 74.8435 13.2764C75.2642 13.2764 75.5915 13.1362 75.8719 12.9024C76.1524 12.6687 76.2927 12.248 76.2927 11.7337V3.73984C76.2927 3.22561 76.1524 2.80488 75.8719 2.57114C75.5915 2.3374 75.2175 2.19715 74.8435 2.19715C74.4228 2.19715 74.0955 2.3374 73.815 2.57114C73.5345 2.80488 73.3943 3.17886 73.3943 3.73984V11.7337Z" fill="#E30613"/>
<path d="M81.6219 3.73984C81.6219 3.13211 81.7154 2.57114 81.9492 2.10366C82.1829 1.63618 82.4634 1.26219 82.7906 0.934959C83.1179 0.607724 83.5386 0.420732 83.9593 0.23374C84.3801 0.0934959 84.8476 0 85.2683 0C85.689 0 86.1565 0.0934959 86.5772 0.23374C86.998 0.373984 87.4187 0.607724 87.7459 0.934959C88.0732 1.26219 88.3537 1.63618 88.5874 2.10366C88.8211 2.57114 88.9146 3.13211 88.9146 3.73984V4.4878H86.7175V3.73984C86.7175 3.22561 86.5772 2.80488 86.2967 2.57114C86.0163 2.3374 85.6423 2.19715 85.2683 2.19715C84.8476 2.19715 84.5203 2.3374 84.2398 2.57114C83.9593 2.80488 83.8191 3.22561 83.8191 3.73984V11.7805C83.8191 12.2947 83.9593 12.7154 84.2398 12.9492C84.5203 13.1829 84.8943 13.3232 85.2683 13.3232C85.689 13.3232 86.0163 13.1829 86.2967 12.9492C86.5772 12.7154 86.7175 12.2947 86.7175 11.7805V8.88211H84.9878V6.96545H88.9146V11.7337C88.9146 12.3415 88.8211 12.9024 88.5874 13.3699C88.3537 13.8374 88.0732 14.2114 87.7459 14.5386C87.4187 14.8659 86.998 15.0996 86.5772 15.2398C86.1565 15.3801 85.689 15.4736 85.2683 15.4736C84.8476 15.4736 84.3801 15.3801 83.9593 15.2398C83.5386 15.0996 83.1179 14.8659 82.7906 14.5386C82.4634 14.2114 82.1829 13.8374 81.9492 13.3699C81.7154 12.9024 81.6219 12.3415 81.6219 11.7337V3.73984Z" fill="#E30613"/>
<path d="M94.1504 8.92851L91.1586 0.139893H93.4492L95.2256 6.17038H95.2724L97.0021 0.139893H99.3395L96.3476 8.92851V15.333H94.1504V8.92851Z" fill="#E30613"/>
<path d="M101.677 0.139893H108.175V2.1968H103.874V6.63786H107.614V8.69477H103.874V13.1826H108.175V15.333H101.677V0.139893Z" fill="#E30613"/>
<path d="M117.805 11.9206C117.805 12.3881 117.711 12.8556 117.524 13.2763C117.337 13.697 117.104 14.071 116.776 14.3982C116.449 14.7255 116.075 14.9592 115.654 15.1462C115.234 15.3332 114.766 15.4267 114.299 15.4267C113.878 15.4267 113.457 15.38 113.037 15.2397C112.616 15.1462 112.242 14.9125 111.868 14.632C111.541 14.3515 111.26 13.9775 111.026 13.51C110.793 13.0426 110.699 12.4816 110.699 11.7804V3.50597C110.699 2.99174 110.793 2.52426 110.933 2.10353C111.12 1.6828 111.354 1.30882 111.681 0.98158C112.008 0.654344 112.382 0.420605 112.803 0.233613C113.224 0.0466209 113.738 -0.046875 114.252 -0.046875C114.766 -0.046875 115.234 0.0466209 115.654 0.233613C116.075 0.420605 116.449 0.654344 116.776 0.98158C117.104 1.30882 117.337 1.6828 117.524 2.15028C117.711 2.61776 117.805 3.08524 117.805 3.59947V4.44093H115.608V3.73971C115.608 3.31898 115.468 2.94499 115.234 2.61776C115 2.29052 114.673 2.15028 114.252 2.15028C113.691 2.15028 113.364 2.33727 113.177 2.66451C112.99 2.99174 112.896 3.41247 112.896 3.9267V11.6869C112.896 12.1076 112.99 12.4816 113.177 12.8088C113.364 13.0893 113.738 13.2763 114.205 13.2763C114.346 13.2763 114.486 13.2295 114.673 13.1828C114.813 13.1361 115 13.0426 115.14 12.9491C115.281 12.8556 115.374 12.6686 115.468 12.4816C115.561 12.2946 115.608 12.0141 115.608 11.7336V10.9856H117.805V11.9206Z" fill="#E30613"/>
<path d="M18.9797 21.7375C18.8862 22.0648 18.7927 22.2985 18.5589 22.4387C18.3719 22.6257 18.0915 22.6725 17.811 22.6725C17.5772 22.6725 17.3435 22.579 17.1565 22.4855C16.9695 22.3452 16.876 22.2518 16.7825 22.0648C16.7358 22.018 16.7358 21.9713 16.7358 21.9245C16.7358 21.8778 16.689 21.831 16.689 21.7375C16.689 21.5973 16.6423 21.3635 16.6423 20.9428C16.6423 20.5688 16.6423 20.2883 16.689 20.1481C16.7358 20.0079 16.7358 19.9144 16.7825 19.8209C16.876 19.6806 16.9695 19.5404 17.1565 19.4001C17.3435 19.2599 17.5305 19.2131 17.811 19.2131C18.1382 19.2131 18.3719 19.3066 18.5589 19.4936C18.7459 19.6806 18.8862 19.9144 18.9329 20.1948H18.4187C18.3719 20.0546 18.3252 19.9611 18.185 19.8676C18.0915 19.7741 17.9512 19.7274 17.7642 19.7274C17.6707 19.7274 17.5305 19.7741 17.4837 19.8209C17.3902 19.8676 17.3435 19.9144 17.2967 20.0079C17.25 20.1013 17.2032 20.1948 17.1565 20.2883C17.1098 20.4286 17.1098 20.6156 17.1098 20.9428C17.1098 21.27 17.1098 21.5038 17.1565 21.5973C17.1565 21.7375 17.2032 21.831 17.2967 21.8778C17.3435 21.9245 17.437 22.018 17.4837 22.0648C17.5772 22.1115 17.6707 22.1583 17.7642 22.1583C18.0447 22.1583 18.2317 22.018 18.3719 21.6908H18.9797V21.7375Z" fill="#E30613"/>
<path d="M19.9146 19.3069H19.4004V22.6727H19.9146V19.3069Z" fill="#E30613"/>
<path d="M20.6158 19.3069H22.6728V19.7744H21.1301V20.7561H22.439V21.2236H21.1301V22.2053H22.6728V22.6727H20.6158V19.3069Z" fill="#E30613"/>
<path d="M23.2337 19.3069H23.7012L25.1971 21.691V19.3069H25.6646V22.6727H25.1971L23.7479 20.2886V22.6727H23.2337V19.3069Z" fill="#E30613"/>
<path d="M28.6565 21.7375C28.563 22.0648 28.4695 22.2985 28.2358 22.4387C28.0488 22.6257 27.7683 22.6725 27.4878 22.6725C27.2541 22.6725 27.0203 22.579 26.8333 22.4855C26.6463 22.3452 26.5528 22.2518 26.4593 22.0648C26.4126 22.018 26.4126 21.9713 26.4126 21.9245C26.4126 21.8778 26.3658 21.831 26.3658 21.7375C26.3658 21.5973 26.3191 21.3635 26.3191 20.9428C26.3191 20.5688 26.3191 20.2883 26.3658 20.1481C26.4126 20.0079 26.4126 19.9144 26.4593 19.8209C26.5528 19.6806 26.6463 19.5404 26.8333 19.4001C27.0203 19.2599 27.2073 19.2131 27.4878 19.2131C27.815 19.2131 28.0488 19.3066 28.2358 19.4936C28.4228 19.6806 28.563 19.9144 28.6097 20.1948H28.0955C28.0488 20.0546 28.002 19.9611 27.8618 19.8676C27.7683 19.7741 27.628 19.7274 27.441 19.7274C27.3475 19.7274 27.2073 19.7741 27.1606 19.8209C27.0671 19.8676 27.0203 19.9144 26.9736 20.0079C26.9268 20.1013 26.8801 20.1948 26.8333 20.2883C26.7866 20.4286 26.7866 20.6156 26.7866 20.9428C26.7866 21.27 26.7866 21.5038 26.8333 21.5973C26.8333 21.7375 26.8801 21.831 26.9736 21.8778C27.0203 21.9245 27.1138 22.018 27.1606 22.0648C27.2541 22.1115 27.3475 22.1583 27.441 22.1583C27.7215 22.1583 27.9085 22.018 28.0488 21.6908H28.6565V21.7375Z" fill="#E30613"/>
<path d="M29.5915 19.3069H29.0773V22.6727H29.5915V19.3069Z" fill="#E30613"/>
<path d="M31.9756 21.9248H30.7602L30.5264 22.6727H30.0122L31.1809 19.3069H31.6016L32.7703 22.6727H32.2561L31.9756 21.9248ZM31.8354 21.4573L31.3679 20.0081L30.9004 21.4573H31.8354Z" fill="#E30613"/>
<path d="M33.1443 22.2051H33.6118V22.6726L33.1443 22.9998V22.2051Z" fill="#E30613"/>
<path d="M35.9959 19.7744H35.1077V19.3069H37.3516V19.7744H36.4634V22.6727H35.9959V19.7744Z" fill="#E30613"/>
<path d="M37.7723 19.3069H39.876V19.7744H38.2866V20.7561H39.6423V21.2236H38.2866V22.2053H39.876V22.6727H37.7723V19.3069Z" fill="#E30613"/>
<path d="M42.5874 21.7375C42.4939 22.0648 42.4004 22.2985 42.1667 22.4387C41.9797 22.6257 41.6992 22.6725 41.4187 22.6725C41.185 22.6725 40.9512 22.579 40.7642 22.4855C40.5772 22.3452 40.4837 22.2518 40.3902 22.0648C40.3435 22.018 40.3435 21.9713 40.3435 21.9245C40.3435 21.8778 40.2967 21.831 40.2967 21.7375C40.2967 21.5973 40.25 21.3635 40.25 20.9428C40.25 20.5688 40.25 20.2883 40.2967 20.1481C40.3435 20.0079 40.3435 19.9144 40.3902 19.8209C40.4837 19.6806 40.5772 19.5404 40.7642 19.4001C40.9512 19.2599 41.1382 19.2131 41.4187 19.2131C41.7459 19.2131 41.9797 19.3066 42.1667 19.4936C42.3537 19.6806 42.4939 19.9144 42.5407 20.1948H42.0732C42.0264 20.0546 41.9797 19.9611 41.8394 19.8676C41.7459 19.7741 41.6057 19.7274 41.4187 19.7274C41.3252 19.7274 41.185 19.7741 41.1382 19.8209C41.0447 19.8676 40.998 19.9144 40.9512 20.0079C40.9045 20.1013 40.8577 20.1948 40.811 20.2883C40.7642 20.4286 40.7642 20.6156 40.7642 20.9428C40.7642 21.27 40.7642 21.5038 40.811 21.5973C40.811 21.7375 40.8577 21.831 40.9512 21.8778C40.998 21.9245 41.0915 22.018 41.1382 22.0648C41.2317 22.1115 41.3252 22.1583 41.4187 22.1583C41.6992 22.1583 41.8862 22.018 42.0264 21.6908H42.5874V21.7375Z" fill="#E30613"/>
<path d="M43.0549 19.3069H43.4757L44.9716 21.691V19.3069H45.4858V22.6727H45.0183L43.5224 20.2886V22.6727H43.0549V19.3069Z" fill="#E30613"/>
<path d="M46.1403 20.9897C46.1403 20.6157 46.1403 20.3352 46.187 20.195C46.2338 20.0547 46.2338 19.9612 46.2805 19.8677C46.374 19.7275 46.4675 19.5872 46.6545 19.447C46.8415 19.3068 47.0285 19.26 47.309 19.26C47.5894 19.26 47.7764 19.3068 47.9634 19.447C48.1504 19.5872 48.2439 19.7275 48.3374 19.8677C48.3842 19.9612 48.4309 20.0547 48.4309 20.195C48.4309 20.3352 48.4777 20.569 48.4777 20.9897C48.4777 21.3637 48.4777 21.6442 48.4309 21.7844C48.4309 21.9246 48.3842 22.0181 48.3374 22.1116C48.2439 22.2519 48.1504 22.3921 47.9634 22.5324C47.7764 22.6726 47.5894 22.7194 47.309 22.7194C47.0752 22.7194 46.8415 22.6259 46.6545 22.5324C46.4675 22.3921 46.374 22.2986 46.2805 22.1116C46.2338 22.0649 46.2338 22.0181 46.2338 21.9714C46.2338 21.9246 46.187 21.8779 46.187 21.7844C46.1403 21.6442 46.1403 21.3637 46.1403 20.9897ZM46.6545 20.9897C46.6545 21.3169 46.6545 21.5507 46.7012 21.6442C46.7012 21.7844 46.748 21.8779 46.8415 21.9246C46.8882 21.9714 46.9817 22.0649 47.0285 22.1116C47.122 22.1584 47.2155 22.2051 47.309 22.2051C47.4492 22.2051 47.5427 22.1584 47.6362 22.1116C47.7297 22.0649 47.7764 22.0181 47.8232 21.9246C47.8699 21.8311 47.9167 21.7377 47.9634 21.6442C47.9634 21.5507 48.0102 21.3169 48.0102 20.9897C48.0102 20.6624 48.0102 20.4287 47.9634 20.3352C47.9167 20.2417 47.9167 20.1482 47.8232 20.0547C47.7764 20.008 47.7297 19.9145 47.6362 19.8677C47.5427 19.821 47.4492 19.821 47.309 19.7742C47.2155 19.7742 47.0752 19.821 47.0285 19.8677C46.935 19.9145 46.8882 19.9612 46.8415 20.0547C46.7947 20.1482 46.748 20.2417 46.7012 20.3352C46.6545 20.4287 46.6545 20.6624 46.6545 20.9897Z" fill="#E30613"/>
<path d="M49.1321 19.3069H49.6463V22.2053H51.189V22.6727H49.1321V19.3069Z" fill="#E30613"/>
<path d="M51.6565 20.9897C51.6565 20.6157 51.6565 20.3352 51.7032 20.195C51.75 20.0547 51.75 19.9612 51.7967 19.8677C51.8902 19.7275 51.9837 19.5872 52.1707 19.447C52.3577 19.3068 52.5447 19.26 52.8252 19.26C53.1057 19.26 53.2927 19.3068 53.4797 19.447C53.6667 19.5872 53.7602 19.7275 53.8536 19.8677C53.9004 19.9612 53.9471 20.0547 53.9471 20.195C53.9471 20.3352 53.9939 20.569 53.9939 20.9897C53.9939 21.3637 53.9939 21.6442 53.9471 21.7844C53.9471 21.9246 53.9004 22.0181 53.8536 22.1116C53.7602 22.2519 53.6667 22.3921 53.4797 22.5324C53.2927 22.6726 53.1057 22.7194 52.8252 22.7194C52.5915 22.7194 52.3577 22.6259 52.1707 22.5324C51.9837 22.3921 51.8902 22.2986 51.7967 22.1116C51.75 22.0649 51.75 22.0181 51.75 21.9714C51.75 21.9246 51.7032 21.8779 51.7032 21.7844C51.6565 21.6442 51.6565 21.3637 51.6565 20.9897ZM52.124 20.9897C52.124 21.3169 52.124 21.5507 52.1707 21.6442C52.1707 21.7844 52.2175 21.8779 52.311 21.9246C52.3577 21.9714 52.4512 22.0649 52.498 22.1116C52.5915 22.1584 52.685 22.2051 52.7784 22.2051C52.9187 22.2051 53.0122 22.1584 53.1057 22.1116C53.1992 22.0649 53.2459 22.0181 53.2927 21.9246C53.3394 21.8311 53.3862 21.7377 53.4329 21.6442C53.4329 21.5507 53.4797 21.3169 53.4797 20.9897C53.4797 20.6624 53.4797 20.4287 53.4329 20.3352C53.3862 20.2417 53.3862 20.1482 53.2927 20.0547C53.2459 20.008 53.1992 19.9145 53.1057 19.8677C53.0122 19.821 52.9187 19.821 52.7784 19.7742C52.685 19.7742 52.5447 19.821 52.498 19.8677C52.4045 19.9145 52.3577 19.9612 52.311 20.0547C52.2642 20.1482 52.2175 20.2417 52.1707 20.3352C52.124 20.4287 52.124 20.6624 52.124 20.9897Z" fill="#E30613"/>
<path d="M55.6769 20.8026H56.8456V21.5038C56.8456 21.831 56.7053 22.1115 56.5183 22.3452C56.2846 22.579 56.0041 22.6725 55.6769 22.6725C55.4431 22.6725 55.2094 22.579 55.0224 22.4855C54.8354 22.3452 54.7419 22.2518 54.6484 22.0648C54.6017 22.018 54.6017 21.9713 54.6017 21.9245C54.6017 21.8778 54.5549 21.831 54.5549 21.7375C54.5549 21.5973 54.5082 21.3635 54.5082 20.9428C54.5082 20.5688 54.5082 20.2883 54.5549 20.1481C54.6017 20.0079 54.6017 19.9144 54.6484 19.8209C54.7419 19.6806 54.8354 19.5404 55.0224 19.4001C55.2094 19.2599 55.3964 19.2131 55.6769 19.2131C56.0041 19.2131 56.2379 19.3066 56.4248 19.4936C56.6118 19.6806 56.7521 19.9144 56.7988 20.1948H56.2846C56.2379 20.0546 56.1911 19.9611 56.0509 19.8676C55.9574 19.7741 55.8171 19.7274 55.6301 19.7274C55.5366 19.7274 55.3964 19.7741 55.3496 19.8209C55.2561 19.8676 55.2094 19.9144 55.1627 20.0079C55.1159 20.1013 55.0692 20.1948 55.0224 20.2883C54.9757 20.4286 54.9757 20.6156 54.9757 20.9428C54.9757 21.27 54.9757 21.5038 55.0224 21.5973C55.0224 21.7375 55.0692 21.831 55.1627 21.8778C55.2094 21.9245 55.3029 22.018 55.3496 22.0648C55.4431 22.1115 55.5366 22.1583 55.6301 22.1583C55.8171 22.1583 56.0041 22.1115 56.0976 21.9713C56.2379 21.831 56.2846 21.6908 56.2846 21.457V21.27H55.6301V20.8026H55.6769Z" fill="#E30613"/>
<path d="M57.8272 18.4653H58.4349L57.7805 19.1666H57.4065L57.8272 18.4653ZM57.5 19.3068H58.0142V22.6726H57.5V19.3068Z" fill="#E30613"/>
<path d="M60.3983 21.9248H59.1829L58.9492 22.6727H58.4349L59.6036 19.3069H60.0244L61.1931 22.6727H60.6788L60.3983 21.9248ZM60.2581 21.4573L59.7906 20.0081L59.3231 21.4573H60.2581Z" fill="#E30613"/>
<path d="M63.2968 21.2703L62.3151 19.3069H62.8293L63.5305 20.8028L64.2317 19.3069H64.746L63.7642 21.2703V22.6727H63.2968V21.2703Z" fill="#E30613"/>
<path d="M66.1951 19.3069H68.2987V19.7744H66.7093V20.7561H68.065V21.2236H66.7093V22.2053H68.2987V22.6727H66.1951V19.3069Z" fill="#E30613"/>
<path d="M71.0103 21.7375C70.9168 22.0648 70.8233 22.2985 70.5895 22.4387C70.4025 22.6257 70.122 22.6725 69.8416 22.6725C69.6078 22.6725 69.3741 22.579 69.1871 22.4855C69.0001 22.3452 68.9066 22.2518 68.8131 22.0648C68.7663 22.018 68.7664 21.9713 68.7664 21.9245C68.7664 21.8778 68.7196 21.831 68.7196 21.7375C68.7196 21.5973 68.6729 21.3635 68.6729 20.9428C68.6729 20.5688 68.6729 20.2883 68.7196 20.1481C68.7664 20.0079 68.7663 19.9144 68.8131 19.8209C68.9066 19.6806 69.0001 19.5404 69.1871 19.4001C69.3741 19.2599 69.5611 19.2131 69.8416 19.2131C70.1688 19.2131 70.4025 19.3066 70.5895 19.4936C70.7765 19.6806 70.9168 19.9144 70.9635 20.1948H70.4493C70.4025 20.0546 70.3558 19.9611 70.2155 19.8676C70.122 19.7741 69.9818 19.7274 69.7948 19.7274C69.7013 19.7274 69.5611 19.7741 69.5143 19.8209C69.4208 19.8676 69.3741 19.9144 69.3273 20.0079C69.2806 20.1013 69.2338 20.1948 69.1871 20.2883C69.1403 20.4286 69.1403 20.6156 69.1403 20.9428C69.1403 21.27 69.1403 21.5038 69.1871 21.5973C69.1871 21.7375 69.2338 21.831 69.3273 21.8778C69.3741 21.9245 69.4676 22.018 69.5143 22.0648C69.6078 22.1115 69.7013 22.1583 69.7948 22.1583C70.0753 22.1583 70.2623 22.018 70.4025 21.6908H71.0103V21.7375Z" fill="#E30613"/>
<path d="M71.3374 20.9897C71.3374 20.6157 71.3374 20.3352 71.3841 20.195C71.3841 20.0547 71.4309 19.9612 71.4776 19.8677C71.5711 19.7275 71.6646 19.5872 71.8516 19.447C72.0386 19.3068 72.2256 19.26 72.5061 19.26C72.7866 19.26 72.9736 19.3068 73.1606 19.447C73.3476 19.5872 73.4411 19.7275 73.5346 19.8677C73.5813 19.9612 73.6281 20.0547 73.6281 20.195C73.6281 20.3352 73.6748 20.569 73.6748 20.9897C73.6748 21.3637 73.6748 21.6442 73.6281 21.7844C73.6281 21.9246 73.5813 22.0181 73.5346 22.1116C73.4411 22.2519 73.3476 22.3921 73.1606 22.5324C72.9736 22.6726 72.7866 22.7194 72.5061 22.7194C72.2724 22.7194 72.0386 22.6259 71.8516 22.5324C71.6646 22.3921 71.5711 22.2986 71.4776 22.1116C71.4309 22.0649 71.4309 22.0181 71.4309 21.9714C71.4309 21.9246 71.3841 21.8779 71.3841 21.7844C71.3374 21.6442 71.3374 21.3637 71.3374 20.9897ZM71.8516 20.9897C71.8516 21.3169 71.8516 21.5507 71.8984 21.6442C71.8984 21.7844 71.9451 21.8779 72.0386 21.9246C72.0854 21.9714 72.1789 22.0649 72.2256 22.1116C72.3191 22.1584 72.4126 22.2051 72.5061 22.2051C72.6463 22.2051 72.7398 22.1584 72.8333 22.1116C72.9268 22.0649 72.9736 22.0181 73.0203 21.9246C73.0671 21.8311 73.1138 21.7377 73.1606 21.6442C73.1606 21.5507 73.2073 21.3169 73.2073 20.9897C73.2073 20.6624 73.2073 20.4287 73.1606 20.3352C73.1138 20.2417 73.1138 20.1482 73.0203 20.0547C72.9736 20.008 72.9268 19.9145 72.8333 19.8677C72.7398 19.821 72.6463 19.821 72.5061 19.7742C72.4126 19.7742 72.2724 19.821 72.2256 19.8677C72.1321 19.9145 72.0854 19.9612 72.0386 20.0547C71.9919 20.1482 71.9451 20.2417 71.8984 20.3352C71.8516 20.4287 71.8516 20.6624 71.8516 20.9897Z" fill="#E30613"/>
<path d="M74.3293 19.3069H74.7968L76.246 21.691V19.3069H76.7602V22.6727H76.2928L74.8436 20.2886H74.7968V22.6727H74.3293V19.3069Z" fill="#E30613"/>
<path d="M77.4147 20.9897C77.4147 20.6157 77.4147 20.3352 77.4614 20.195C77.4614 20.0547 77.5082 19.9612 77.5549 19.8677C77.6484 19.7275 77.7419 19.5872 77.9289 19.447C78.1159 19.3068 78.3029 19.26 78.5834 19.26C78.8639 19.26 79.0508 19.3068 79.2378 19.447C79.4248 19.5872 79.5183 19.7275 79.6118 19.8677C79.6586 19.9612 79.7053 20.0547 79.7053 20.195C79.7053 20.3352 79.7521 20.569 79.7521 20.9897C79.7521 21.3637 79.7521 21.6442 79.7053 21.7844C79.7053 21.9246 79.6586 22.0181 79.6118 22.1116C79.5183 22.2519 79.4248 22.3921 79.2378 22.5324C79.0508 22.6726 78.8639 22.7194 78.5834 22.7194C78.3496 22.7194 78.1159 22.6259 77.9289 22.5324C77.7419 22.3921 77.6484 22.2986 77.5549 22.1116C77.5082 22.0649 77.5082 22.0181 77.5082 21.9714C77.5082 21.9246 77.4614 21.8779 77.4614 21.7844C77.4614 21.6442 77.4147 21.3637 77.4147 20.9897ZM77.9289 20.9897C77.9289 21.3169 77.9289 21.5507 77.9756 21.6442C77.9756 21.7844 78.0224 21.8779 78.1159 21.9246C78.1626 21.9714 78.2561 22.0649 78.3029 22.1116C78.3964 22.1584 78.4899 22.2051 78.5834 22.2051C78.7236 22.2051 78.8171 22.1584 78.9106 22.1116C79.0041 22.0649 79.0508 22.0181 79.0976 21.9246C79.1443 21.8311 79.1911 21.7377 79.2378 21.6442C79.2378 21.5507 79.2846 21.3169 79.2846 20.9897C79.2846 20.6624 79.2846 20.4287 79.2378 20.3352C79.1911 20.2417 79.1911 20.1482 79.0976 20.0547C79.0508 20.008 79.0041 19.9145 78.9106 19.8677C78.8171 19.821 78.7236 19.821 78.5834 19.7742C78.4899 19.7742 78.3496 19.821 78.3029 19.8677C78.2094 19.9145 78.1626 19.9612 78.1159 20.0547C78.0691 20.1482 78.0224 20.2417 77.9756 20.3352C77.9289 20.4287 77.9289 20.6624 77.9289 20.9897Z" fill="#E30613"/>
<path d="M80.4065 19.3069H80.874L81.8089 21.504L82.7439 19.3069H83.2114V22.6727H82.6971V20.5691L81.9959 22.2053H81.6219L80.9207 20.5691V22.6727H80.4065V19.3069Z" fill="#E30613"/>
<path d="M84.2867 18.4653H84.8944L84.24 19.1666H83.866L84.2867 18.4653ZM84.0062 19.3068H84.5204V22.6726H84.0062V19.3068Z" fill="#E30613"/>
<path d="M86.8577 21.9248H85.6423L85.4085 22.6727H84.8943L86.063 19.3069H86.4837L87.6524 22.6727H87.1382L86.8577 21.9248ZM86.7175 21.4573L86.25 20.0081L85.7825 21.4573H86.7175Z" fill="#E30613"/>
<path d="M90.8781 21.9248H89.6626L89.4289 22.6727H88.9147L90.0834 19.3069H90.5041L91.6728 22.6727H91.1586L90.8781 21.9248ZM90.7378 21.4573L90.2704 20.0081L89.8029 21.4573H90.7378Z" fill="#E30613"/>
<path d="M93.2622 21.878C93.5427 22.1118 93.8232 22.2053 94.1971 22.2053C94.6179 22.2053 94.8516 22.065 94.8516 21.7378C94.8516 21.504 94.7114 21.317 94.4309 21.2703C94.2906 21.2703 94.1504 21.2236 94.0102 21.2236C93.7297 21.1768 93.4959 21.0833 93.3557 20.8963C93.2154 20.7093 93.1219 20.5223 93.1219 20.2886C93.1219 20.0081 93.2154 19.7744 93.4024 19.5874C93.5894 19.4004 93.8232 19.3069 94.1971 19.3069C94.6179 19.3069 94.9451 19.4471 95.2723 19.6341L94.9919 20.0549C94.7581 19.8679 94.4776 19.8211 94.1971 19.7744C94.0569 19.7744 93.9167 19.8211 93.8232 19.9146C93.7297 20.0081 93.6829 20.1016 93.6829 20.2886C93.6829 20.3821 93.7297 20.4756 93.7764 20.5691C93.8699 20.6626 93.9634 20.7093 94.1036 20.7561C94.1971 20.7561 94.3374 20.8028 94.4776 20.8028C94.8049 20.8496 94.9919 20.9431 95.1321 21.1301C95.2723 21.317 95.3658 21.504 95.3658 21.7378C95.3658 22.3923 94.9919 22.7195 94.2439 22.7195C93.7764 22.7195 93.3557 22.5792 92.9817 22.252L93.2622 21.878Z" fill="#E30613"/>
<path d="M95.8801 19.3069H96.3944V21.4573C96.3944 21.691 96.4411 21.878 96.5813 21.9715C96.7216 22.1118 96.8618 22.1585 97.0488 22.1585C97.2358 22.1585 97.4228 22.1118 97.5163 21.9715C97.6565 21.8313 97.7033 21.691 97.7033 21.4573V19.3069H98.2175V21.504C98.2175 21.878 98.124 22.1585 97.8903 22.3455C97.6565 22.5792 97.4228 22.6727 97.0488 22.6727C96.7216 22.6727 96.4411 22.5792 96.2541 22.3455C96.0204 22.1585 95.9269 21.878 95.9269 21.504V19.3069H95.8801Z" fill="#E30613"/>
<path d="M100.041 21.878C100.321 22.1118 100.602 22.2053 100.976 22.2053C101.396 22.2053 101.63 22.065 101.63 21.7378C101.63 21.504 101.49 21.317 101.209 21.2703C101.069 21.2703 100.929 21.2236 100.789 21.2236C100.508 21.1768 100.274 21.0833 100.134 20.8963C99.994 20.7093 99.9005 20.5223 99.9005 20.2886C99.9005 20.0081 99.994 19.7744 100.181 19.5874C100.368 19.4004 100.602 19.3069 100.976 19.3069C101.396 19.3069 101.724 19.4471 102.051 19.6341L101.77 20.0549C101.537 19.8679 101.256 19.8211 100.976 19.7744C100.835 19.7744 100.695 19.8211 100.602 19.9146C100.508 20.0081 100.461 20.1016 100.461 20.2886C100.461 20.3821 100.508 20.4756 100.555 20.5691C100.648 20.6626 100.742 20.7093 100.882 20.7561C100.976 20.7561 101.116 20.8028 101.256 20.8028C101.583 20.8496 101.77 20.9431 101.911 21.1301C102.051 21.317 102.144 21.504 102.144 21.7378C102.144 22.3923 101.77 22.7195 101.022 22.7195C100.555 22.7195 100.134 22.5792 99.7603 22.252L100.041 21.878Z" fill="#E30613"/>
<path d="M102.705 19.3069H104.809V19.7744H103.219V20.7561H104.575V21.2236H103.219V22.2053H104.809V22.6727H102.705V19.3069Z" fill="#E30613"/>
<path d="M105.37 19.3069H106.632C106.913 19.3069 107.146 19.4004 107.287 19.5406C107.474 19.7276 107.614 19.9614 107.614 20.2418C107.614 20.7093 107.38 20.9898 107.006 21.1768L107.754 22.6727H107.193L106.539 21.2236H105.931V22.6727H105.417V19.3069H105.37ZM105.837 20.8028H106.585C106.772 20.8028 106.913 20.7561 107.006 20.6158C107.1 20.5223 107.146 20.3821 107.146 20.2418C107.146 20.0549 107.1 19.9614 107.006 19.8679C106.913 19.8211 106.819 19.7744 106.632 19.7744H105.837V20.8028Z" fill="#E30613"/>
<path d="M107.801 19.3069H108.315L109.063 21.878L109.811 19.3069H110.325L109.25 22.6727H108.876L107.801 19.3069Z" fill="#E30613"/>
<path d="M111.26 19.3069H110.746V22.6727H111.26V19.3069Z" fill="#E30613"/>
<path d="M114.159 21.7375C114.065 22.0648 113.972 22.2985 113.738 22.4387C113.551 22.6257 113.27 22.6725 112.99 22.6725C112.756 22.6725 112.522 22.579 112.335 22.4855C112.148 22.3452 112.055 22.2518 111.961 22.0648C111.915 22.018 111.915 21.9713 111.915 21.9245C111.915 21.8778 111.868 21.831 111.868 21.7375C111.868 21.5973 111.821 21.3635 111.821 20.9428C111.821 20.5688 111.821 20.2883 111.868 20.1481C111.915 20.0079 111.915 19.9144 111.961 19.8209C112.055 19.6806 112.148 19.5404 112.335 19.4001C112.522 19.2599 112.709 19.2131 112.99 19.2131C113.317 19.2131 113.551 19.3066 113.738 19.4936C113.925 19.6806 114.065 19.9144 114.112 20.1948H113.598C113.551 20.0546 113.504 19.9611 113.364 19.8676C113.27 19.7741 113.13 19.7274 112.943 19.7274C112.85 19.7274 112.709 19.7741 112.663 19.8209C112.569 19.8676 112.522 19.9144 112.476 20.0079C112.429 20.1013 112.382 20.1948 112.335 20.2883C112.289 20.4286 112.289 20.6156 112.289 20.9428C112.289 21.27 112.289 21.5038 112.335 21.5973C112.335 21.7375 112.382 21.831 112.476 21.8778C112.522 21.9245 112.616 22.018 112.663 22.0648C112.756 22.1115 112.85 22.1583 112.943 22.1583C113.224 22.1583 113.411 22.018 113.551 21.6908H114.159V21.7375Z" fill="#E30613"/>
<path d="M115.094 19.3069H114.579V22.6727H115.094V19.3069Z" fill="#E30613"/>
<path d="M115.701 20.9897C115.701 20.6157 115.701 20.3352 115.748 20.195C115.795 20.0547 115.795 19.9612 115.841 19.8677C115.935 19.7275 116.028 19.5872 116.215 19.447C116.402 19.3068 116.589 19.26 116.87 19.26C117.15 19.26 117.337 19.3068 117.524 19.447C117.711 19.5872 117.805 19.7275 117.898 19.8677C117.945 19.9612 117.992 20.0547 117.992 20.195C117.992 20.3352 118.039 20.569 118.039 20.9897C118.039 21.3637 118.039 21.6442 117.992 21.7844C117.992 21.9246 117.945 22.0181 117.898 22.1116C117.805 22.2519 117.711 22.3921 117.524 22.5324C117.337 22.6726 117.15 22.7194 116.87 22.7194C116.636 22.7194 116.402 22.6259 116.215 22.5324C116.028 22.3921 115.935 22.2986 115.841 22.1116C115.795 22.0649 115.795 22.0181 115.795 21.9714C115.795 21.9246 115.748 21.8779 115.748 21.7844C115.701 21.6442 115.701 21.3637 115.701 20.9897ZM116.169 20.9897C116.169 21.3169 116.169 21.5507 116.215 21.6442C116.215 21.7844 116.262 21.8779 116.356 21.9246C116.402 21.9714 116.496 22.0649 116.543 22.1116C116.636 22.1584 116.73 22.2051 116.823 22.2051C116.963 22.2051 117.057 22.1584 117.15 22.1116C117.244 22.0649 117.291 22.0181 117.337 21.9246C117.384 21.8311 117.431 21.7377 117.478 21.6442C117.478 21.5507 117.524 21.3169 117.524 20.9897C117.524 20.6624 117.524 20.4287 117.478 20.3352C117.431 20.2417 117.431 20.1482 117.337 20.0547C117.291 20.008 117.244 19.9145 117.15 19.8677C117.057 19.821 116.963 19.821 116.823 19.7742C116.73 19.7742 116.589 19.821 116.543 19.8677C116.449 19.9145 116.402 19.9612 116.356 20.0547C116.309 20.1482 116.262 20.2417 116.215 20.3352C116.215 20.4287 116.169 20.6624 116.169 20.9897Z" fill="#E30613"/>
<path d="M15.1931 15.333H16.2215L8.46138 7.57282V0.139893H7.71341V6.82485L5.51626 4.6277H6.54471V5.00168L7.10569 4.44071L6.54471 3.83298V4.20697H5.09553L3.45935 2.57079H6.54471V2.94477L7.10569 2.38379L6.54471 1.77607V2.15005H3.03862L1.44919 0.560624H6.45122V0.794364L7.10569 0.139893H6.45122H1.02846H0L7.71341 7.85331V15.333H7.76016H8.46138H13.1362H13.9776L13.1362 14.4915V14.9122H8.46138V13.3228H11.0793V13.7436L11.7337 13.0891L11.0793 12.4346V12.9021H8.46138V11.2659H9.06911V11.7334L9.72358 11.0322L9.06911 10.3777V10.8452H8.46138V8.55453L15.1931 15.333Z" fill="#E30613"/>
</g>
<defs>
<clipPath id="clip0_1223_1399">
<rect width="118.039" height="23" fill="white"/>
</clipPath>
</defs>
</svg>
